<svg enable-background="new 0 0 64 64" viewBox="0 0 64 64" xmlns="http://www.w3.org/2000/svg"><path d="m7.777 22.697-.022 4.127h12.73c0-.019-.003-.038-.003-.057 0-4.453 3.61-8.062 8.063-8.062s8.062 3.61 8.062 8.062c0 .019-.003.038-.003.057h12.743l.007-3.976-5.551-1.251c-.227-.669-.482-1.315-.791-1.941l3.047-4.792-5.58-5.591-4.799 3.039c-.626-.309-1.271-.568-1.939-.796l-1.241-5.552h-7.899l-1.241 5.552c-.632.215-1.245.453-1.839.742l-4.772-3.071-5.621 5.55 3.015 4.818c-.313.624-.58 1.265-.811 1.932z" fill="#84dbff"/><path d="m35.025 12.676c.668.228 1.313.487 1.939.796l4.721-2.99-1.205-1.209-4.799 3.039c-.269-.133-.543-.252-.819-.368z" fill="#a9ebff"/><path d="m9.06 23.857 5.556-1.21c.232-.667.498-1.308.811-1.932l-3.015-4.818 5.621-5.55 4.772 3.071c.594-.288 1.207-.526 1.839-.742l1.241-5.552h6.875l-.259-1.159h-7.899l-1.241 5.552c-.632.215-1.245.453-1.839.742l-4.772-3.071-5.621 5.55 3.015 4.818c-.313.624-.58 1.265-.812 1.932l-5.556 1.21-.022 4.127h1.289z" fill="#a9ebff"/><path d="m39.855 26.828c0-.027.004-.053.004-.08 0-6.248-5.065-11.313-11.313-11.313s-11.313 5.065-11.313 11.313c0 .027.004.053.004.08z" fill="#c5f1ff"/><path d="m49.338 27.324h-41.593c-.133 0-.261-.053-.354-.147s-.146-.223-.146-.355l.022-4.127c.001-.234.165-.436.394-.485l5.285-1.151c.187-.513.391-.998.618-1.474l-2.868-4.581c-.124-.199-.094-.457.073-.621l5.621-5.55c.166-.166.425-.191.622-.065l4.538 2.922c.416-.191.862-.371 1.375-.553l1.18-5.28c.051-.229.254-.391.488-.391h7.899c.234 0 .437.162.488.391l1.181 5.28c.528.188 1.016.388 1.479.605l4.564-2.891c.196-.124.457-.098.621.069l5.58 5.591c.166.166.194.424.068.622l-2.897 4.558c.213.457.412.945.602 1.48l5.279 1.19c.228.051.39.254.39.488l-.008 3.976c-.002.276-.226.499-.501.499zm-41.09-1h40.59l.006-3.076-5.16-1.163c-.17-.038-.308-.162-.363-.327-.238-.703-.488-1.318-.766-1.881-.077-.156-.067-.342.026-.489l2.832-4.454-5.014-5.024-4.46 2.825c-.147.092-.334.102-.489.025-.574-.284-1.188-.536-1.879-.771-.165-.057-.289-.194-.327-.364l-1.153-5.161h-7.098l-1.153 5.161c-.038.17-.162.308-.326.364-.697.237-1.264.466-1.782.718-.157.077-.342.066-.489-.028l-4.435-2.854-5.051 4.986 2.803 4.478c.092.148.102.334.023.489-.299.598-.556 1.21-.787 1.873-.057.164-.196.287-.366.324l-5.165 1.125z" fill="#63312d"/><path d="m21.513 12.258c.594-.288 1.207-.526 1.839-.742l.129-.577-2.724-1.753h-4.006l-.001.005z" fill="#52badb"/><path d="m35.672 12.313 1.975-1.251-1.139-5.098h-4.015l1.241 5.552c.667.228 1.312.487 1.938.797z" fill="#52badb"/><path d="m47.81 21.597c-.227-.669-.482-1.315-.791-1.941l3.047-4.792-5.58-5.591h-4.006l-.002.008 5.573 5.583-3.047 4.792c.308.626.564 1.273.791 1.941l5.551 1.251-.007 3.976h4.015l.007-3.976z" fill="#52badb"/><path d="m21.513 12.759c-.094 0-.188-.026-.271-.079l-4.764-3.066c-.188-.121-.272-.352-.208-.564.063-.212.26-.361.48-.361h4.006c.096 0 .19.027.271.079l2.724 1.753c.176.114.263.325.217.53l-.129.576c-.038.17-.162.308-.326.364-.697.237-1.264.466-1.782.718-.069.033-.143.05-.218.05zm-3.071-3.071 3.108 2.001c.404-.187.838-.361 1.333-.538l-2.273-1.463z" fill="#63312d"/><path d="m35.672 12.813c-.076 0-.151-.018-.222-.052-.571-.283-1.186-.535-1.879-.771-.165-.057-.289-.194-.327-.364l-1.24-5.552c-.033-.148.003-.304.098-.422s.238-.188.39-.188h4.015c.234 0 .437.162.488.391l1.14 5.098c.046.206-.043.419-.221.532l-1.975 1.25c-.081.051-.175.078-.267.078zm-1.512-1.677c.529.188 1.018.389 1.479.605l1.443-.913-.976-4.363h-2.99z" fill="#63312d"/><path d="m53.353 27.324h-4.016c-.133 0-.26-.053-.354-.146-.094-.095-.146-.222-.146-.354l.007-3.575-5.16-1.163c-.17-.038-.308-.162-.363-.327-.238-.703-.488-1.318-.766-1.881-.077-.156-.067-.342.026-.489l2.832-4.454-5.289-5.299c-.124-.124-.174-.305-.132-.475.056-.223.258-.387.487-.387h4.006c.133 0 .26.053.354.146l5.58 5.591c.166.166.194.424.068.622l-2.897 4.557c.214.458.412.946.602 1.48l5.28 1.19c.228.051.39.254.39.488l-.008 3.976c-.002.277-.225.5-.501.5zm-3.514-1h3.016l.006-3.076-3.116-.702c.064.085.102.19.102.304zm-5.662-5.153 3.234.729c-.032-.043-.058-.091-.075-.143-.237-.701-.488-1.317-.766-1.881-.076-.156-.066-.342.027-.489l2.832-4.454-5.15-5.16h-2.604l4.729 4.737c.166.166.194.424.068.622l-2.897 4.558c.213.457.412.946.602 1.481z" fill="#63312d"/><path d="m36.605 26.828c0-.019.003-.038.003-.057 0-4.453-3.61-8.063-8.063-8.063s-8.063 3.61-8.063 8.063c0 .019.003.038.003.057z" fill="#fff"/><path d="m36.605 27.328h-16.12c-.276 0-.5-.224-.5-.5-.003-4.779 3.838-8.62 8.56-8.62s8.563 3.841 8.563 8.563c0 .276-.226.557-.503.557zm-15.61-1h15.1c-.226-3.96-3.525-7.12-7.55-7.12-4.021 0-7.32 3.155-7.55 7.12z" fill="#63312d"/><path d="m39.854 27.328h-22.618c-.276 0-.5-.224-.5-.5-.004-6.594 5.295-11.894 11.81-11.894 6.514 0 11.813 5.3 11.813 11.813-.001.277-.228.581-.505.581zm-22.114-1h21.608c-.228-5.775-4.986-10.394-10.803-10.394-5.822.001-10.584 4.626-10.805 10.394z" fill="#63312d"/><path d="m3.083 30.824h53.878v27.212h-53.878z" fill="#f9dd9d"/><path d="m56.961 30.824h-51.9-1.978v1.696 25.515h1.978v-25.515h51.9z" fill="#ffe8bb"/><path d="m56.961 58.535h-53.878c-.276 0-.5-.224-.5-.5v-27.212c0-.276.224-.5.5-.5h53.877c.276 0 .5.224.5.5v27.212c.001.277-.223.5-.499.5zm-53.378-1h52.877v-26.212h-52.877z" fill="#63312d"/><path d="m56.961 30.824h3.956v27.212h-3.956z" fill="#efc36a"/><path d="m60.917 58.535h-3.956c-.276 0-.5-.224-.5-.5v-27.212c0-.276.224-.5.5-.5h3.956c.276 0 .5.224.5.5v27.212c0 .277-.224.5-.5.5zm-3.456-1h2.956v-26.212h-2.956z" fill="#63312d"/><path d="m7.736 26.828h41.499v26.674h-41.499z" fill="#fff"/><g fill="#63312d"><path d="m49.235 54.002h-41.499c-.276 0-.5-.224-.5-.5v-26.674c0-.276.224-.5.5-.5h41.499c.276 0 .5.224.5.5v26.674c0 .276-.224.5-.5.5zm-40.999-1h40.499v-25.674h-40.499z"/><path d="m28.055 27.115h1v26.387h-1z"/><path d="m11.481 31.88h13.42v1h-13.42z"/><path d="m11.481 35.051h13.42v1h-13.42z"/><path d="m11.481 38.223h13.42v1h-13.42z"/><path d="m11.481 41.395h13.42v1h-13.42z"/><path d="m11.481 44.566h13.42v1h-13.42z"/><path d="m11.481 47.738h13.42v1h-13.42z"/><path d="m32.185 31.88h13.42v1h-13.42z"/><path d="m32.185 35.051h13.42v1h-13.42z"/><path d="m32.185 38.223h13.42v1h-13.42z"/><path d="m32.185 41.395h13.42v1h-13.42z"/><path d="m32.185 44.566h13.42v1h-13.42z"/><path d="m32.185 47.738h13.42v1h-13.42z"/></g><path d="m49.235 26.828h4.125v26.674h-4.125z" fill="#e3dfdf"/><path d="m53.361 54.002h-4.126c-.276 0-.5-.224-.5-.5v-26.674c0-.276.224-.5.5-.5h4.126c.276 0 .5.224.5.5v26.674c0 .276-.224.5-.5.5zm-3.626-1h3.126v-25.674h-3.126z" fill="#63312d"/></svg>