<svg width="65" height="153" viewBox="0 0 65 153" fill="none" xmlns="http://www.w3.org/2000/svg">
<g filter="url(#filter0_d_162_9)">
<path d="M53.3301 70.4259L53.2521 80.1202C46.9739 80.0697 42.5873 81.3085 40.0925 83.8368C37.5604 86.4018 36.271 90.5833 36.2244 96.3814L36.1107 110.507C36.0605 116.749 35.2438 121.857 33.6606 125.833C32.0405 129.809 29.7074 132.893 26.6612 135.084C23.6151 137.276 19.9097 138.779 15.545 139.593C11.1801 140.444 6.22783 140.847 0.688232 140.803L0.812148 125.403C5.16996 125.438 8.51709 124.855 10.8535 123.655C13.1897 122.492 14.8109 120.677 15.7171 118.21C16.5864 115.742 17.0365 112.588 17.0674 108.748L17.2136 90.5777C17.2365 87.734 17.738 85.0789 18.7181 82.6123C19.6982 80.1456 21.47 77.9808 24.0333 76.1179C26.5964 74.2919 30.2458 72.8624 34.9815 71.8294C39.68 70.8331 45.7962 70.3653 53.3301 70.4259ZM1.82086 0.0418186C7.36046 0.0863928 12.3056 0.56938 16.6563 1.49078C21.0073 2.37525 24.688 3.93759 27.6985 6.17779C30.7089 8.418 32.9921 11.5387 34.5481 15.54C36.0671 19.541 36.8015 24.6621 36.7512 30.9034L36.638 44.974C36.5914 50.7721 37.8134 54.9554 40.3042 57.5238C42.7577 60.1288 47.1236 61.4566 53.4018 61.5071L53.3238 71.2014C45.79 71.1408 39.6823 70.5561 35.0007 69.4474C30.2819 68.3753 26.656 66.8873 24.1229 64.9833C21.5896 63.1163 19.8527 60.9417 18.9125 58.4596C17.9722 55.9776 17.5133 53.3332 17.5359 50.5264L17.6821 32.3566C17.713 28.5158 17.3137 25.3548 16.4842 22.8736C15.6178 20.3921 14.0262 18.5327 11.7093 17.2952C9.39252 16.0578 6.0552 15.4216 1.69739 15.3865L1.82086 0.0418186ZM53.4018 61.5071L53.2521 80.1202L35.6916 79.9789L35.8413 61.3658L53.4018 61.5071Z" fill="#3F91F9"/>
</g>
<defs>
<filter id="filter0_d_162_9" x="0.688232" y="0.0418701" width="64.2048" height="152.18" filterUnits="userSpaceOnUse" color-interpolation-filters="sRGB">
<feFlood flood-opacity="0" result="BackgroundImageFix"/>
<feColorMatrix in="SourceAlpha" type="matrix" values="0 0 0 0 0 0 0 0 0 0 0 0 0 0 0 0 0 0 127 0" result="hardAlpha"/>
<feOffset dx="7" dy="7"/>
<feGaussianBlur stdDeviation="2"/>
<feComposite in2="hardAlpha" operator="out"/>
<feColorMatrix type="matrix" values="0 0 0 0 0 0 0 0 0 0 0 0 0 0 0 0 0 0 1 0"/>
<feBlend mode="normal" in2="BackgroundImageFix" result="effect1_dropShadow_162_9"/>
<feBlend mode="normal" in="SourceGraphic" in2="effect1_dropShadow_162_9" result="shape"/>
</filter>
</defs>
</svg>
