<svg width="64" height="153" viewBox="0 0 64 153" fill="none" xmlns="http://www.w3.org/2000/svg">
<g filter="url(#filter0_d_162_8)">
<path d="M0.151989 71.1307V61.4361C6.4304 61.4361 10.8068 60.1619 13.2812 57.6136C15.7926 55.0284 17.0483 50.8366 17.0483 45.0384V30.9119C17.0483 24.6705 17.8239 19.5554 19.375 15.5668C20.9631 11.5781 23.2713 8.47585 26.2997 6.25994C29.3281 4.04403 33.0213 2.51136 37.3793 1.66193C41.7372 0.775567 46.6861 0.332387 52.2259 0.332387V15.733C47.8679 15.733 44.5256 16.3423 42.1989 17.5611C39.8722 18.7429 38.2656 20.571 37.3793 23.0455C36.5298 25.5199 36.1051 28.6776 36.1051 32.5185V50.6889C36.1051 53.5327 35.625 56.1918 34.6648 58.6662C33.7045 61.1406 31.9503 63.3196 29.402 65.2031C26.8537 67.0497 23.2159 68.5085 18.4886 69.5795C13.7983 70.6136 7.68608 71.1307 0.151989 71.1307ZM52.2259 141.098C46.6861 141.098 41.7372 140.655 37.3793 139.768C33.0213 138.919 29.3281 137.386 26.2997 135.17C23.2713 132.955 20.9631 129.852 19.375 125.864C17.8239 121.875 17.0483 116.76 17.0483 110.518V96.4474C17.0483 90.6491 15.7926 86.4759 13.2812 83.9276C10.8068 81.3423 6.4304 80.0497 0.151989 80.0497V70.3551C7.68608 70.3551 13.7983 70.8906 18.4886 71.9616C23.2159 72.9957 26.8537 74.4545 29.402 76.3381C31.9503 78.1847 33.7045 80.3452 34.6648 82.8196C35.625 85.294 36.1051 87.9347 36.1051 90.7415V108.912C36.1051 112.753 36.5298 115.911 37.3793 118.385C38.2656 120.859 39.8722 122.706 42.1989 123.925C44.5256 125.143 47.8679 125.753 52.2259 125.753V141.098ZM0.151989 80.0497V61.4361H17.7131V80.0497H0.151989Z" fill="#FB8001"/>
</g>
<defs>
<filter id="filter0_d_162_8" x="0.1521" y="0.332397" width="63.0737" height="151.766" filterUnits="userSpaceOnUse" color-interpolation-filters="sRGB">
<feFlood flood-opacity="0" result="BackgroundImageFix"/>
<feColorMatrix in="SourceAlpha" type="matrix" values="0 0 0 0 0 0 0 0 0 0 0 0 0 0 0 0 0 0 127 0" result="hardAlpha"/>
<feOffset dx="7" dy="7"/>
<feGaussianBlur stdDeviation="2"/>
<feComposite in2="hardAlpha" operator="out"/>
<feColorMatrix type="matrix" values="0 0 0 0 0 0 0 0 0 0 0 0 0 0 0 0 0 0 1 0"/>
<feBlend mode="normal" in2="BackgroundImageFix" result="effect1_dropShadow_162_8"/>
<feBlend mode="normal" in="SourceGraphic" in2="effect1_dropShadow_162_8" result="shape"/>
</filter>
</defs>
</svg>
