<svg width="304" height="207" viewBox="0 0 304 207" fill="none" xmlns="http://www.w3.org/2000/svg">
<path d="M54.1014 206.163C53.6063 207.093 53.1952 207.848 52.8511 208.666C51.1896 212.938 51.1724 217.23 52.0025 221.684C53.21 227.885 56.0282 233.569 59.6519 238.994C65.6745 247.936 73.6436 255.662 82.8292 262.374C96.4357 272.344 111.796 279.777 128.75 284.902C138.28 287.755 147.944 289.721 158.011 290.036C161.652 290.155 165.243 289.973 168.842 289.673C170.931 289.477 172.986 288.744 175.033 288.128C175.763 287.926 176.493 287.723 177.03 288.226C177.357 288.66 177.668 289.331 177.634 289.807C177.483 290.932 176.501 291.659 175.335 291.96C172.994 292.68 170.712 293.581 168.263 293.819C164.295 294.28 160.276 294.44 156.207 294.3C148.481 294.279 140.771 293.006 133.322 291.09C107.324 284.328 85.0346 272.679 66.9993 255.515C58.9547 247.845 52.5461 239.301 48.8725 229.52C45.6855 220.956 44.7803 212.504 49.5378 203.912C48.7828 203.458 48.0194 203.122 47.3316 202.73C38.2884 198.053 29.7234 192.683 22.1569 186.348C14.7917 180.203 8.47522 173.393 4.46593 165.325C3.21617 162.759 2.26006 160.089 1.58917 157.432C-1.42129 144.344 5.35835 133.467 19.7885 127.735C25.0153 125.666 30.5355 124.506 36.2403 123.772C47.3563 122.41 58.4889 122.837 69.5626 124.096C72.6163 124.425 75.5861 124.928 78.7068 125.32C79.3444 125.411 79.9149 125.439 80.8377 125.544C80.6113 124.698 80.452 123.915 80.2842 123.251C78.5147 116.903 77.97 110.436 79.4975 104.011C81.3524 95.9925 85.9084 89.2394 93.711 84.1365C98.3589 81.1446 103.435 79.1874 109.106 77.9154C118.049 75.9096 127.143 75.8193 136.313 76.6869C137.521 76.8058 138.729 76.9247 140.146 77.1136C140.205 76.2816 140.189 75.5056 140.239 74.7925C140.466 67.5288 142.799 60.8455 148.496 55.1621C152.582 51.0096 157.792 48.1646 163.732 46.1306C171.358 43.5234 179.227 42.5382 187.39 42.4619C198.707 42.3019 209.764 43.7987 220.595 46.4771C221.442 46.6379 222.356 46.8617 223.413 47.0925C223.405 46.1976 223.38 45.5405 223.363 44.7644C222.919 36.8715 222.903 28.9995 224.313 21.1975C224.926 17.5901 225.891 14.0597 226.999 10.5362C227.754 7.94958 229.147 5.45387 231.161 3.28676C232.638 1.62996 233.972 0.97987 235.993 0.72134C235.985 0.840189 236.044 1.02198 236.044 1.02198C233.569 2.62975 232.335 4.8948 231.379 7.29268C229.902 10.9769 229.205 14.759 228.794 18.5552C227.677 28.2797 227.844 38.0673 228.657 47.8269C228.715 48.0087 228.774 48.1905 228.816 48.6099C229.445 48.8197 230.141 49.0924 230.913 49.3092C249.528 55.2319 266.239 63.8042 280.751 75.1308C288.486 81.1157 295.238 87.8276 299.827 95.8048C301.487 98.6293 302.645 101.489 303.358 104.565C303.836 106.914 303.886 109.242 303.365 111.542C302.073 116.666 298.398 120.064 292.425 121.559C288.272 122.608 284.136 122.405 279.891 121.719C271.192 120.279 263.625 116.985 256.712 112.532C241.394 102.477 231.656 89.4172 227.698 73.5401C226.138 67.262 225.383 60.7253 224.26 54.3493C224.168 53.6292 224.075 52.9091 223.983 52.189C223.706 52.0562 223.572 51.9304 223.362 51.8604C210.51 48.4269 197.339 46.4685 183.765 47.1737C176.081 47.5716 168.765 48.8225 161.894 51.8842C150.585 56.9939 144.619 66.4804 145.675 77.862C146.38 78.0159 147.294 78.2396 148.141 78.4005C164.869 81.6665 180.372 87.0787 194.457 95.3431C200.296 98.7901 205.681 102.573 210.144 107.264C212.744 109.956 215.118 112.815 216.317 116.094C217.047 117.919 217.55 119.911 217.559 121.82C217.676 126.238 214.714 129.671 209.73 131.334C206.878 132.208 203.925 132.481 200.93 132.333C195.796 132.081 190.871 130.886 186.199 129.166C175.175 125.166 165.939 119.167 158.172 111.63C149.464 103.212 143.408 93.7317 141.044 82.6436C140.985 82.4618 140.926 82.2801 140.809 81.9165C140.171 81.8256 139.466 81.6717 138.829 81.5808C131.379 80.6784 123.812 80.4262 116.304 81.3695C110.456 82.0962 104.986 83.557 99.9356 86.1713C93.0309 89.7083 88.4498 94.7905 86.0666 101.173C84.145 106.088 83.6411 111.191 84.4208 116.358C84.8568 119.301 85.729 122.147 86.3831 125.041C86.6514 126.306 87.5406 126.887 89.0926 127.201C99.6797 129.271 109.931 132.041 119.922 135.453C135.232 140.558 149.963 146.767 163.344 154.877C169.862 158.835 175.851 163.184 180.842 168.497C183.3 171.182 185.389 174.027 186.37 177.355C187.921 182.738 184.968 187.066 178.626 188.722C176.872 189.232 174.993 189.498 173.13 189.526C170.194 189.561 167.342 189.421 164.506 189.043C158.198 188.196 152.099 186.406 146.319 184.155C125.976 176.358 108.955 165.087 95.6424 149.944C90.7436 144.337 86.667 138.233 83.6894 131.766C83.2533 130.85 82.8003 130.172 81.3826 129.983C70.0656 128.116 58.7821 126.787 47.2384 127.115C40.6444 127.268 34.1594 127.904 27.8924 129.504C24.2514 130.399 20.7277 131.657 17.5983 133.412C9.48545 137.843 5.60897 144.093 5.68368 152.147C5.77539 157.936 8.04836 163.235 11.2694 168.283C15.5892 174.994 21.4108 180.707 28.1301 185.867C35.0508 191.215 42.6007 195.76 50.6876 199.794C51.0986 200.053 51.5181 200.193 52.0801 200.34C52.5332 200.004 52.9779 199.788 53.2883 199.445C57.2736 195.705 62.1061 193.14 67.8529 191.812C71.6365 190.924 75.5544 190.162 79.4387 189.876C96.0496 188.724 111.729 191.64 126.435 198.206C129.832 199.744 133.062 201.632 135.612 204.023C136.417 204.778 137.223 205.533 137.952 206.344C142.239 211.504 140.577 216.789 134.067 219.809C131.332 221.046 128.354 221.675 125.325 222.003C120.56 222.604 115.702 222.485 110.795 222.065C98.4877 221.044 86.6675 218.197 75.2836 214.24C68.9247 212.079 62.8176 209.394 56.6181 207.003C55.6953 206.898 54.9319 206.562 54.1014 206.163ZM228.882 53.7414C229.209 56.2023 229.486 58.3626 229.83 60.5858C230.97 67.7377 232.328 74.8408 235.356 81.6084C241.236 94.5983 250.866 105.148 264.858 112.693C270.026 115.511 275.68 117.517 281.855 118.238C284.833 118.623 287.761 118.707 290.747 117.959C294.976 116.855 297.711 114.604 298.332 110.877C298.6 109.102 298.735 107.2 298.215 105.445C297.536 102.908 296.571 100.356 295.237 97.9647C291.421 91.218 285.818 85.4569 279.459 80.2551C265.593 68.9006 249.452 60.3564 231.416 54.3428C230.711 54.189 229.931 54.091 228.882 53.7414ZM88.9831 131.788C89.2263 132.396 89.2766 132.696 89.4696 133.004C91.9943 137.779 95.0391 142.282 98.6042 146.511C107.722 157.215 119.047 166.06 132.209 173.206C141.101 177.995 150.413 181.911 160.706 184.086C164.02 184.785 167.502 185.135 170.925 185.303C173.064 185.408 175.237 185.038 177.351 184.486C180.413 183.682 181.63 181.654 181.026 179.061C180.758 177.795 180.196 176.635 179.491 175.467C177.511 172.09 174.634 169.266 171.455 166.665C166.657 162.673 161.397 159.135 155.676 156.051C135.635 144.99 113.781 137.298 90.6106 132.046C90.2583 131.969 89.7633 131.885 88.9831 131.788ZM146.102 82.9516C146.203 83.5528 146.169 84.0282 146.354 84.4547C147.067 86.5171 147.561 88.6284 148.492 90.6419C153.793 102.709 163.063 112.287 175.411 119.811C181.451 123.446 187.835 126.264 195.1 127.754C198.413 128.453 201.752 128.796 205.217 128.37C210.855 127.573 213.431 124.539 212.332 119.834C211.728 117.24 210.177 114.898 208.398 112.724C204.59 107.886 199.423 104.054 193.869 100.621C180.019 92.0703 164.525 86.5393 147.872 83.2173C147.453 83.0775 146.882 83.0495 146.102 82.9516ZM56.5598 202.766C57.1806 203.095 57.5916 203.353 57.9356 203.549C71.7437 209.653 86.2148 214.478 101.559 217.08C107.993 218.171 114.453 218.905 121.064 218.514C124.008 218.361 127.045 217.914 129.822 217.096C135.812 215.362 136.777 211.832 132.701 207.756C130.092 205.183 126.862 203.295 123.322 201.75C110.202 196.037 96.2925 193.387 81.5104 193.973C76.0574 194.182 70.772 195.056 65.7718 196.957C62.3153 198.278 59.253 200.096 56.5598 202.766Z" fill="#FFF7EE"/>
</svg>
