<svg width="569" height="492" viewBox="0 0 569 492" fill="none" xmlns="http://www.w3.org/2000/svg">
<path d="M200.693 143.773C224.463 158.446 247.539 150.271 252.008 125.625L271.381 18.8045C275.85 -5.84173 283.15 -5.84173 287.619 18.8045L306.992 125.625C311.461 150.271 334.555 158.431 358.307 143.773L467.776 76.2116C491.529 61.5387 496.835 66.0418 479.545 86.2152L399.937 179.103C382.648 199.277 392.263 218.861 421.303 222.653L547.189 239.094C576.23 242.887 576.23 249.083 547.189 252.876L421.303 269.316C392.263 273.109 382.648 292.708 399.937 312.867L479.545 405.77C496.835 425.928 491.529 430.431 467.776 415.758L358.307 348.196C334.555 333.524 311.461 341.684 306.992 366.33L287.619 473.165C283.15 497.812 275.85 497.812 271.381 473.165L252.008 366.33C247.539 341.684 224.445 333.524 200.693 348.196L91.2419 415.758C67.4893 430.431 63.0913 426.532 81.52 407.1L172.061 311.537C190.472 292.104 181.712 273.412 152.618 270.012L9.15826 253.193C-19.936 249.778 -20.0072 243.824 9.01582 239.956L137.714 222.805C166.737 218.936 176.352 199.261 159.063 179.103L79.4546 86.2152C62.1654 66.0569 67.4715 61.5538 91.2241 76.2267L200.693 143.773Z" fill="#FA8000"/>
</svg>
