<svg width="604" height="383" viewBox="0 0 604 383" fill="none" xmlns="http://www.w3.org/2000/svg">
<g clip-path="url(#clip0_221_38)">
<g clip-path="url(#clip1_221_38)">
<g clip-path="url(#clip2_221_38)">
<g clip-path="url(#clip3_221_38)">
<g clip-path="url(#clip4_221_38)">
<g clip-path="url(#clip5_221_38)">
<g clip-path="url(#clip6_221_38)">
<g clip-path="url(#clip7_221_38)">
<g clip-path="url(#clip8_221_38)">
<g clip-path="url(#clip9_221_38)">
<g clip-path="url(#clip10_221_38)">
<path d="M189.768 95.9774H155.589V142.059H189.768C196.249 142.059 200.586 140.464 202.781 137.275C204.976 134.086 206.074 129.569 206.074 123.722V112.56C206.074 107.67 204.746 103.684 202.092 100.601C199.416 97.5187 195.308 95.9774 189.768 95.9774ZM172.522 129.143V108.733H184.281C186.998 108.733 188.828 109.446 189.768 110.87C190.709 112.316 191.179 114.102 191.179 116.228V121.649C191.179 123.775 190.709 125.55 189.768 126.975C188.828 128.42 186.998 129.143 184.281 129.143H172.522ZM155.589 143.494V180.487H154.021V94.3828H189.768C195.831 94.3828 200.325 96.1049 203.252 99.5491C206.178 103.014 207.642 107.352 207.642 112.56V123.563C207.642 128.452 207.015 132.471 205.76 135.617C204.506 138.742 201.997 140.89 198.235 142.059H199.959C206.335 142.059 211.091 143.515 214.227 146.428C217.362 149.362 218.93 153.593 218.93 159.12V180.487H217.362V159.12C217.362 153.912 215.951 150 213.129 147.385C210.307 144.791 205.917 143.494 199.959 143.494H155.589ZM142.733 194.838H166.878C168.864 194.838 170.306 194.38 171.205 193.466C172.083 192.573 172.522 191.117 172.522 189.097V157.845H194.472C196.667 157.845 198.214 158.397 199.113 159.503C199.991 160.63 200.43 162.362 200.43 164.701V189.097C200.43 191.117 200.879 192.573 201.778 193.466C202.656 194.38 204.088 194.838 206.074 194.838H230.376C232.361 194.838 233.804 194.38 234.703 193.466C235.581 192.573 236.02 191.117 236.02 189.097V155.293C236.02 148.596 234.274 143.228 230.783 139.189C227.271 135.149 222.693 132.811 217.049 132.173C220.289 130.791 222.568 128.527 223.885 125.38C225.181 122.255 225.829 118.46 225.829 113.995V106.661C225.829 98.7943 223.613 92.3844 219.181 87.4307C214.728 82.4984 206.649 80.0322 194.942 80.0322H142.733C140.747 80.0322 139.315 80.4786 138.437 81.3716C137.538 82.2857 137.089 83.7527 137.089 85.7724V189.097C137.089 191.117 137.538 192.573 138.437 193.466C139.315 194.38 140.747 194.838 142.733 194.838ZM171.895 194.997L151.513 212.218C151.095 212.643 150.447 213.015 149.569 213.334C148.67 213.653 147.698 213.812 146.652 213.812H122.508C119.999 213.812 118.17 213.228 117.02 212.058C115.87 210.889 115.295 209.029 115.295 206.477V103.153C115.295 101.771 115.484 100.601 115.86 99.6447C116.215 98.688 116.759 97.8908 117.49 97.253L137.716 79.8727C138.238 79.4475 138.949 79.0967 139.848 78.8203C140.726 78.5652 141.688 78.4376 142.733 78.4376H194.942C207.38 78.4376 215.899 81.0739 220.498 86.3465C225.097 91.5977 227.397 98.3691 227.397 106.661V113.995C227.397 117.929 226.926 121.351 225.986 124.264C225.045 127.198 223.529 129.569 221.439 131.376H221.282C226.195 132.758 230.146 135.521 233.135 139.667C236.103 143.813 237.588 149.022 237.588 155.293V189.097C237.588 190.479 237.41 191.648 237.055 192.605C236.678 193.562 236.124 194.359 235.393 194.997L215.011 212.218C214.593 212.643 213.944 213.015 213.066 213.334C212.168 213.653 211.196 213.812 210.15 213.812H185.849C183.34 213.812 181.511 213.228 180.361 212.058C179.211 210.889 178.637 209.029 178.637 206.477V182.081C178.637 180.381 178.323 179.073 177.696 178.159C177.069 177.266 175.919 176.819 174.247 176.819H174.09V189.097C174.09 190.479 173.912 191.648 173.557 192.605C173.18 193.562 172.626 194.359 171.895 194.997ZM285.093 146.524V151.467H346.24V146.524C346.24 143.653 345.999 140.996 345.518 138.551C345.058 136.106 344.463 133.821 343.731 131.695L332.913 105.704C331.763 102.94 330.561 100.623 329.307 98.7518C328.053 96.9022 325.962 95.9774 323.035 95.9774H307.67C304.535 95.9774 302.34 96.9022 301.086 98.7518C299.831 100.623 298.681 102.887 297.636 105.544L287.602 131.695C286.87 133.821 286.264 136.106 285.783 138.551C285.323 140.996 285.093 143.653 285.093 146.524ZM302.81 137.754L310.179 113.517C310.597 112.56 311.036 111.869 311.496 111.444C311.977 111.019 312.531 110.806 313.158 110.806H317.078C317.705 110.806 318.248 111.019 318.708 111.444C319.189 111.869 319.638 112.56 320.057 113.517L327.425 137.754H302.81ZM347.807 180.487H346.24V153.061H285.093V180.487H283.526V146.524C283.526 143.547 283.756 140.805 284.215 138.296C284.696 135.808 285.355 133.395 286.191 131.057L296.225 104.907C297.375 101.93 298.681 99.4321 300.145 97.4124C301.608 95.3927 304.117 94.3828 307.67 94.3828H323.035C326.485 94.3828 328.91 95.3927 330.31 97.4124C331.732 99.4321 333.07 101.983 334.324 105.066L345.142 131.057C345.978 133.395 346.626 135.808 347.086 138.296C347.567 140.805 347.807 143.547 347.807 146.524V180.487ZM301.242 189.097V166.774H328.993V189.097C328.993 191.117 329.485 192.573 330.467 193.466C331.47 194.38 333.017 194.838 335.108 194.838H358.782C360.768 194.838 362.2 194.38 363.078 193.466C363.977 192.573 364.427 191.117 364.427 189.097V147.002C364.427 143.813 363.925 140.146 362.921 136C361.939 131.854 360.402 127.017 358.312 121.49L344.672 85.2941C344.045 83.487 343.073 82.1582 341.756 81.3078C340.459 80.4574 338.818 80.0322 336.832 80.0322H294.657C292.567 80.0322 290.863 80.4574 289.546 81.3078C288.25 82.1582 287.288 83.487 286.661 85.2941L273.021 121.49C270.931 127.017 269.384 131.854 268.38 136C267.398 140.146 266.906 143.813 266.906 147.002V189.097C266.906 191.117 267.345 192.573 268.223 193.466C269.122 194.38 270.565 194.838 272.551 194.838H295.598C297.584 194.838 299.016 194.38 299.894 193.466C300.793 192.573 301.242 191.117 301.242 189.097ZM300.615 194.997L280.233 212.218C279.815 212.643 279.157 213.015 278.258 213.334C277.38 213.653 276.418 213.812 275.373 213.812H252.325C249.817 213.812 247.988 213.228 246.838 212.058C245.688 210.889 245.113 209.029 245.113 206.477V164.382C245.113 161.087 245.605 157.334 246.587 153.125C247.591 148.937 249.19 143.972 251.385 138.232L264.868 102.196C265.182 101.239 265.569 100.41 266.028 99.7085C266.509 99.0282 267.011 98.4223 267.534 97.8908L267.69 97.7313L287.759 80.67C288.595 79.9259 289.588 79.3625 290.738 78.9798C291.887 78.6184 293.194 78.4376 294.657 78.4376H336.832C339.237 78.4376 341.191 78.9479 342.696 79.9684C344.222 80.9676 345.351 82.5302 346.083 84.6563L359.723 120.852C361.918 126.592 363.507 131.556 364.489 135.745C365.493 139.954 365.994 143.707 365.994 147.002V189.097C365.994 190.479 365.806 191.648 365.43 192.605C365.075 193.562 364.531 194.359 363.799 194.997L343.417 212.218C342.999 212.643 342.341 213.015 341.442 213.334C340.564 213.653 339.602 213.812 338.557 213.812H314.883C312.27 213.812 310.336 213.206 309.082 211.995C307.827 210.761 307.2 208.922 307.2 206.477V185.749H302.81V189.097C302.81 190.479 302.622 191.648 302.246 192.605C301.89 193.562 301.347 194.359 300.615 194.997ZM420.242 216.204C410.73 216.204 402.912 215.12 396.787 212.951C390.683 210.761 385.875 207.859 382.363 204.245C378.872 200.631 376.468 196.485 375.151 191.808C373.855 187.131 373.207 182.294 373.207 177.298V156.25C373.207 154.868 373.384 153.667 373.74 152.647C374.116 151.647 374.618 150.882 375.245 150.35L395.627 132.97C396.149 132.545 396.829 132.194 397.665 131.918C398.501 131.663 399.494 131.535 400.644 131.535H423.378C424.528 131.535 425.541 131.663 426.419 131.918C427.318 132.194 428.081 132.598 428.708 133.13V103.153C428.708 101.771 428.886 100.601 429.242 99.6447C429.618 98.688 430.172 97.8908 430.903 97.253L451.129 79.8727C451.651 79.4475 452.352 79.0967 453.23 78.8203C454.128 78.5652 455.101 78.4376 456.146 78.4376H480.761C483.27 78.4376 485.099 79.0223 486.249 80.1916C487.398 81.3609 487.973 83.2212 487.973 85.7724V164.701C487.973 169.697 487.262 174.289 485.841 178.478C484.44 182.687 481.963 186.28 478.409 189.257L458.184 206.637C454.63 209.613 449.822 211.952 443.76 213.653C437.697 215.354 429.858 216.204 420.242 216.204ZM486.405 164.701V85.7724C486.405 83.7527 485.956 82.2857 485.057 81.3716C484.179 80.4786 482.747 80.0322 480.761 80.0322H456.146C454.16 80.0322 452.717 80.4786 451.819 81.3716C450.941 82.2857 450.502 83.7527 450.502 85.7724V158.323C450.502 160.449 449.895 162.224 448.683 163.649C447.491 165.094 444.648 165.817 440.154 165.817C435.346 165.817 432.283 165.094 430.966 163.649C429.67 162.224 429.022 160.449 429.022 158.323V138.87C429.022 136.85 428.573 135.383 427.674 134.469C426.796 133.576 425.364 133.13 423.378 133.13H400.644C398.658 133.13 397.216 133.576 396.317 134.469C395.439 135.383 395 136.85 395 138.87V164.701C395 169.591 395.648 174.024 396.944 177.999C398.261 181.996 400.613 185.398 403.999 188.204C407.407 191.032 412.058 193.243 417.953 194.838C423.869 196.432 431.374 197.229 440.467 197.229C449.665 197.229 457.243 196.432 463.201 194.838C469.159 193.243 473.831 191.032 477.218 188.204C480.625 185.398 483.008 181.996 484.367 177.999C485.726 174.024 486.405 169.591 486.405 164.701ZM467.591 160.874V94.3828H469.159V160.874C469.159 167.146 467.194 172.302 463.264 176.341C459.355 180.381 451.86 182.4 440.781 182.4C434.928 182.4 430.088 181.869 426.263 180.806C422.458 179.743 419.458 178.276 417.263 176.405C415.068 174.555 413.521 172.302 412.622 169.644C411.744 166.987 411.305 164.063 411.305 160.874V148.278H412.873V160.874C412.873 166.933 414.828 171.77 418.737 175.384C422.667 178.999 430.015 180.806 440.781 180.806C451.129 180.806 458.184 178.967 461.947 175.289C465.71 171.632 467.591 166.827 467.591 160.874Z" fill="black"/>
</g>
</g>
<g clip-path="url(#clip11_221_38)">
<g clip-path="url(#clip12_221_38)">
<path d="M141.918 285.922H152.753C152.481 292.152 150.764 296.865 147.6 300.062C144.426 303.269 139.948 304.873 134.165 304.873C128.09 304.873 123.435 302.839 120.201 298.771C116.967 294.703 115.35 288.909 115.35 281.388V272.181C115.35 264.681 117.022 258.897 120.367 254.829C123.712 250.761 128.362 248.727 134.316 248.727C140.17 248.727 144.613 250.392 147.645 253.723C150.688 257.053 152.416 261.833 152.829 268.062H141.948C141.847 264.21 141.263 261.551 140.195 260.086C139.127 258.62 137.167 257.888 134.316 257.888C131.414 257.888 129.359 258.923 128.15 260.992C126.941 263.052 126.301 266.443 126.231 271.167V281.495C126.231 286.926 126.825 290.651 128.014 292.669C129.213 294.698 131.263 295.712 134.165 295.712C137.016 295.712 138.981 295.005 140.059 293.591C141.147 292.177 141.767 289.621 141.918 285.922ZM197.109 249.481V304.119H186.288V280.742H170.284V304.119H159.433V249.481H170.284V271.582H186.288V249.481H197.109ZM243.474 249.481V304.119H232.668V280.742H216.649V304.119H205.813V249.481H216.649V271.582H232.668V249.481H243.474ZM281.361 304.119L278.49 292.93H263.694L260.808 304.119H249.337L266.127 249.481H276.056L292.952 304.119H281.361ZM271.069 264.266L266.052 283.739H276.087L271.069 264.266ZM308.805 249.481V294.959H327.847V304.119H297.97V249.481H308.805ZM369.573 272.381V281.711C369.573 289.047 367.87 294.739 364.465 298.786C361.059 302.844 356.329 304.873 350.274 304.873C344.249 304.873 339.514 302.864 336.068 298.848C332.633 294.831 330.89 289.211 330.839 281.987V272.642C330.839 265.132 332.547 259.271 335.962 255.06C339.378 250.838 344.123 248.727 350.198 248.727C356.183 248.727 360.898 250.802 364.344 254.952C367.779 259.092 369.522 264.901 369.573 272.381ZM358.692 282.049V272.566C358.692 267.637 358.002 263.969 356.621 261.561C355.251 259.163 353.11 257.965 350.198 257.965C347.327 257.965 345.201 259.122 343.821 261.438C342.441 263.754 341.73 267.273 341.69 271.997V281.711C341.69 286.496 342.39 290.02 343.791 292.285C345.191 294.549 347.352 295.682 350.274 295.682C353.105 295.682 355.211 294.575 356.591 292.362C357.971 290.148 358.672 286.711 358.692 282.049ZM409.016 249.481V258.672H395.732V304.119H384.851V258.672H371.779V249.481H409.016ZM439.589 304.119L431.519 284.154H426.124V304.119H415.288V249.481H432.592C438.022 249.481 442.219 250.915 445.181 253.784C448.153 256.643 449.639 260.716 449.639 266.003C449.639 273.257 447.039 278.334 441.841 281.234L451.256 303.597V304.119H439.589ZM426.124 258.672V274.963H432.29C434.456 274.963 436.078 274.231 437.156 272.765C438.244 271.3 438.788 269.343 438.788 266.894C438.788 261.412 436.682 258.672 432.471 258.672H426.124ZM484.821 271.582V280.481H467.925V294.959H487.919V304.119H457.074V249.481H487.858V258.672H467.925V271.582H484.821Z" fill="black"/>
</g>
</g>
</g>
</g>
</g>
</g>
</g>
<path d="M374.904 0C478.981 0 563.353 85.8075 563.353 191.655C563.353 297.503 478.981 383.31 374.904 383.31C319.907 383.31 270.412 359.35 235.962 321.134H244.367C277.483 355.66 323.731 377.098 374.904 377.098C475.608 377.098 557.245 294.073 557.245 191.655C557.245 89.2375 475.608 6.21173 374.904 6.21173C323.731 6.21173 277.483 27.6489 244.367 62.1763H235.962C270.412 23.96 319.907 0 374.904 0Z" fill="black"/>
</g>
</g>
</g>
</g>
<defs>
<clipPath id="clip0_221_38">
<rect width="604" height="383" fill="white"/>
</clipPath>
<clipPath id="clip1_221_38">
<rect width="604" height="383" fill="white" transform="translate(-0.365967 0.15506)"/>
</clipPath>
<clipPath id="clip2_221_38">
<rect width="603.038" height="383.31" fill="white" transform="translate(0.11499)"/>
</clipPath>
<clipPath id="clip3_221_38">
<rect width="603.038" height="383.31" fill="white" transform="translate(0.11499)"/>
</clipPath>
<clipPath id="clip4_221_38">
<rect width="372.678" height="226.435" fill="white" transform="translate(115.295 78.4376)"/>
</clipPath>
<clipPath id="clip5_221_38">
<rect width="372.678" height="226.435" fill="white" transform="translate(115.295 78.4376)"/>
</clipPath>
<clipPath id="clip6_221_38">
<rect width="372.678" height="226.435" fill="white" transform="translate(115.295 78.4376)"/>
</clipPath>
<clipPath id="clip7_221_38">
<rect width="372.678" height="226.435" fill="white" transform="translate(115.295 78.4376)"/>
</clipPath>
<clipPath id="clip8_221_38">
<rect width="372.678" height="226.435" fill="white" transform="translate(115.295 78.4376)"/>
</clipPath>
<clipPath id="clip9_221_38">
<rect width="372.678" height="137.766" fill="white" transform="translate(115.295 78.4376)"/>
</clipPath>
<clipPath id="clip10_221_38">
<rect width="372.678" height="137.766" fill="white" transform="translate(115.295 78.4376)"/>
</clipPath>
<clipPath id="clip11_221_38">
<rect width="372.678" height="56.1451" fill="white" transform="translate(115.295 248.727)"/>
</clipPath>
<clipPath id="clip12_221_38">
<rect width="372.678" height="56.1451" fill="white" transform="translate(115.295 248.727)"/>
</clipPath>
</defs>
</svg>
