<svg xmlns="http://www.w3.org/2000/svg" version="1.1" xmlns:xlink="http://www.w3.org/1999/xlink" xmlns:svgjs="http://svgjs.dev/svgjs" width="2000" height="1247" viewBox="0 0 2000 1247"><g transform="matrix(1,0,0,1,-1.2121212121212466,0.5048582995951847)"><svg viewBox="0 0 396 247" data-background-color="#0c1d36" preserveAspectRatio="xMidYMid meet" height="1247" width="2000" xmlns="http://www.w3.org/2000/svg" xmlns:xlink="http://www.w3.org/1999/xlink"><g id="tight-bounds" transform="matrix(1,0,0,1,0.2400000000000091,-0.09999999999999432)"><svg viewBox="0 0 395.52 247.2" height="247.2" width="395.52"><g><svg></svg></g><g><svg viewBox="0 0 395.52 247.2" height="247.2" width="395.52"><g transform="matrix(1,0,0,1,78.84971459585525,47.215199999999996)"><svg viewBox="0 0 237.8205708082895 152.7696" height="152.7696" width="237.8205708082895"><g><svg viewBox="0 0 244.43135999999998 157.0161948890353" height="152.7696" width="237.8205708082895"><g><svg viewBox="0 0 244.43135999999998 157.0161948890353" height="157.0161948890353" width="244.43135999999998"><g id="textblocktransform"><svg viewBox="0 0 244.43135999999998 157.0161948890353" height="157.0161948890353" width="244.43135999999998" id="textblock"><g><svg viewBox="0 0 244.43135999999998 113.71188627947093" height="113.71188627947093" width="244.43135999999998"><g transform="matrix(1,0,0,1,0,0)"><svg width="244.43135999999998" viewBox="4 -39.95 86.95 40.45" height="113.71188627947093" data-palette-color="#f9cc0b"><path d="M27.6-0.6L18.15-16.45 14.3-16.45Q13.45-16.45 12.98-17.13 12.5-17.8 12.5-18.95L12.5-18.95Q12.5-21.5 14.6-21.5L14.6-21.5 20.45-21.5Q22.3-21.5 23.05-22.55 23.8-23.6 23.8-24.85L23.8-24.85 23.8-31.3Q23.8-32.55 23.05-33.6 22.3-34.65 20.45-34.65L20.45-34.65 9.9-34.65 9.9-2.05Q9.9 0.35 6.95 0.35L6.95 0.35Q4 0.35 4-2.05L4-2.05 4-36.7Q4-38.5 4.93-39.1 5.85-39.7 7.15-39.7L7.15-39.7 21.7-39.7Q23-39.7 24.4-39.15 25.8-38.6 27.1-37.75L27.1-37.75 27.05-37.75Q28.35-36.8 29.05-35.27 29.75-33.75 29.75-31.75L29.75-31.75 29.75-24.45Q29.75-20.4 27.05-18.4L27.05-18.4Q26.5-18 25.88-17.65 25.25-17.3 24.6-16.95L24.6-16.95 32.6-3.75Q32.75-3.5 32.9-3.1 33.05-2.7 33.05-2.45L33.05-2.45Q33.05-1.25 31.35-0.15L31.35-0.15 31.35-0.2Q30.2 0.5 29.4 0.5L29.4 0.5Q28.25 0.5 27.55-0.65L27.55-0.65 27.6-0.6ZM61.85-1.2L50.85-34.8 39.9-1.2 39.9-1.25Q39.6-0.5 39.07-0.03 38.55 0.45 37.8 0.45L37.8 0.45Q37.4 0.45 37.02 0.38 36.65 0.3 36.25 0.2L36.25 0.2 36.3 0.2Q33.45-0.7 34.2-3L34.2-3 45.6-37.65Q45.85-38.45 46.47-39 47.1-39.55 47.95-39.65L47.95-39.65Q48.8-39.8 49.6-39.88 50.4-39.95 50.85-39.95L50.85-39.95Q51.3-39.95 52.1-39.88 52.9-39.8 53.75-39.7L53.75-39.7Q54.45-39.6 55.12-38.95 55.8-38.3 56.15-37.65L56.15-37.65Q58.95-29.05 61.82-20.33 64.7-11.6 67.5-3L67.5-3Q68.2-0.7 65.4 0.2L65.4 0.2Q65 0.3 64.67 0.38 64.35 0.45 63.95 0.45L63.95 0.45Q63.25 0.45 62.67-0.03 62.1-0.5 61.85-1.25L61.85-1.25 61.85-1.2ZM54.6-12L54.6-12Q54.6-10.4 53.47-9.28 52.35-8.15 50.75-8.15L50.75-8.15Q49.15-8.15 48.05-9.28 46.95-10.4 46.95-12L46.95-12Q46.95-13.6 48.05-14.73 49.15-15.85 50.75-15.85L50.75-15.85Q52.35-15.85 53.47-14.73 54.6-13.6 54.6-12ZM90.95-37.55L90.95-8Q90.95-3.95 88.25-1.95L88.25-1.95Q86.95-1 85.57-0.48 84.2 0.05 82.9 0.05L82.9 0.05 78.09 0.05Q76.8 0.05 75.42-0.48 74.05-1 72.75-1.95L72.75-1.95Q70.09-3.9 70.09-8L70.09-8 70.09-11.3Q70.09-13.65 73-13.65L73-13.65Q76-13.65 76-11.3L76-11.3 76-8.4Q76-7.1 76.75-6.05 77.5-5 79.34-5L79.34-5 81.65-5Q83.5-5 84.25-6.05 85-7.1 85-8.4L85-8.4 85-37.55Q85-39.95 87.95-39.95L87.95-39.95Q90.95-39.95 90.95-37.55L90.95-37.55Z" opacity="1" transform="matrix(1,0,0,1,0,0)" fill="#000000" class="wordmark-text-0" data-fill-palette-color="primary" id="text-0"></path></svg></g></svg></g><g transform="matrix(1,0,0,1,0,140.55653354478332)"><svg viewBox="0 0 244.43135999999998 16.45966134425197" height="16.45966134425197" width="244.43135999999998"><g transform="matrix(1,0,0,1,0,0)"><svg width="244.43135999999998" viewBox="0.1 -40.9 841.8499999999998 53.45" height="16.45966134425197" data-palette-color="#f9cc0b"><g class="slogan-text-1" data-fill-palette-color="secondary" id="text-1"><path d="M0.4-37.15L15.15-37.15 14.9-34.7 10.8-34.1 13.7-11.95 14.35-5.75 16.75-11.95 26.8-34.1 22.7-34.7 22.9-37.15 34.95-37.15 34.55-34.7 31.1-34.15 15.15 0.25 9.1 0.35 3.5-34.1 0.1-34.75 0.4-37.15ZM40.15-5Q40.1-4.75 40.1-4.4L40.1-4.4Q40.1-3.2 40.95-3.2L40.95-3.2Q41.4-3.2 41.95-3.5 42.5-3.8 43.35-4.5L43.35-4.5 44-2.95Q43.15-1.8 41.47-0.65 39.8 0.5 37.4 0.5L37.4 0.5Q35.45 0.5 34.35-0.28 33.25-1.05 33.25-2.4L33.25-2.4 33.3-2.9Q33.6-5.5 35.35-18L35.35-18 36.15-23.8 33.2-25.2 33.55-27.15 42.15-28.35 43.35-27.8 40.15-5ZM40.7-33.15Q39.35-33.15 38.37-34.18 37.4-35.2 37.4-36.55L37.4-36.55Q37.4-38.4 38.62-39.65 39.85-40.9 41.75-40.9L41.75-40.9Q43.3-40.9 44.2-39.93 45.1-38.95 45.1-37.6L45.1-37.6Q45.1-35.7 43.95-34.43 42.8-33.15 40.7-33.15L40.7-33.15ZM56.25-9.15Q55.9-6.25 55.9-5.65L55.9-5.65Q55.9-4.5 56.35-4.03 56.8-3.55 57.9-3.55L57.9-3.55Q58.9-3.55 60.17-4.03 61.45-4.5 62.3-5.2L62.3-5.2 62.85-3.35Q61.55-1.9 59.15-0.7 56.75 0.5 53.75 0.5L53.75 0.5Q51.65 0.5 50.42-0.58 49.2-1.65 49.2-4L49.2-4Q49.2-5 49.7-8.7L49.7-8.7 51.8-24.2 48.8-24.2 49.35-26.6 52.35-27.65Q53.85-29.05 55.9-34.55L55.9-34.55 59.65-34.55 58.8-27.75 64.8-27.75 64.3-24.2 58.3-24.2 56.25-9.15ZM87.74-5.1Q87.69-4.9 87.69-4.5L87.69-4.5Q87.69-3.2 88.69-3.2L88.69-3.2Q89.49-3.2 90.94-4.4L90.94-4.4 91.64-2.85Q90.99-1.85 89.32-0.68 87.64 0.5 85.44 0.5L85.44 0.5Q83.74 0.5 82.74-0.25 81.74-1 81.69-2.55L81.69-2.55 81.79-3.4Q80.39-1.75 78.39-0.63 76.39 0.5 73.99 0.5L73.99 0.5Q69.79 0.5 67.72-2.38 65.64-5.25 65.64-9.9L65.64-9.9Q65.64-14.5 67.57-18.75 69.49-23 73.19-25.7 76.89-28.4 81.99-28.4L81.99-28.4Q83.29-28.4 84.82-28.1 86.34-27.8 87.49-27.4L87.49-27.4 90.94-28.4 87.74-5.1ZM83.89-24.85Q82.94-25.3 81.44-25.3L81.44-25.3Q78.44-25.3 76.44-23.03 74.44-20.75 73.52-17.28 72.59-13.8 72.59-10.25L72.59-10.25Q72.59-6.95 73.59-5.13 74.59-3.3 76.54-3.3L76.54-3.3Q77.79-3.3 79.07-4.15 80.34-5 81.34-6.15L81.34-6.15 83.89-24.85ZM102.69-5Q102.64-4.8 102.64-4.45L102.64-4.45Q102.64-3.2 103.54-3.2L103.54-3.2Q103.99-3.2 104.52-3.45 105.04-3.7 105.94-4.5L105.94-4.5 106.59-2.95Q105.79-1.8 104.24-0.65 102.69 0.5 100.24 0.5L100.24 0.5Q98.34 0.5 97.14-0.28 95.94-1.05 95.89-2.7L95.89-2.7Q95.89-2.9 96.09-4.5L96.09-4.5 100.44-36.45 97.29-37.45 97.74-39.3 106.24-40.3 107.39-39.65 102.69-5ZM118.59-5Q118.54-4.75 118.54-4.4L118.54-4.4Q118.54-3.2 119.39-3.2L119.39-3.2Q119.84-3.2 120.39-3.5 120.94-3.8 121.79-4.5L121.79-4.5 122.44-2.95Q121.59-1.8 119.91-0.65 118.24 0.5 115.84 0.5L115.84 0.5Q113.89 0.5 112.79-0.28 111.69-1.05 111.69-2.4L111.69-2.4 111.74-2.9Q112.04-5.5 113.79-18L113.79-18 114.59-23.8 111.64-25.2 111.99-27.15 120.59-28.35 121.79-27.8 118.59-5ZM119.14-33.15Q117.79-33.15 116.81-34.18 115.84-35.2 115.84-36.55L115.84-36.55Q115.84-38.4 117.06-39.65 118.29-40.9 120.19-40.9L120.19-40.9Q121.74-40.9 122.64-39.93 123.54-38.95 123.54-37.6L123.54-37.6Q123.54-35.7 122.39-34.43 121.24-33.15 119.14-33.15L119.14-33.15ZM142.79-22.55L138.99-22.6Q134.94-22.7 133.84-22.65L133.84-22.65Q132.19-22.6 131.16-21.43 130.14-20.25 130.04-18.55L130.04-18.55 128.04-18.55Q127.94-19.65 127.94-20.8L127.94-20.8Q127.94-23.25 128.36-25.3 128.79-27.35 129.79-27.85L129.79-27.85Q130.64-28.35 132.14-28.35L132.14-28.35Q134.79-28.35 139.94-27.9L139.94-27.9Q141.09-27.85 143.21-27.7 145.34-27.55 146.34-27.55L146.34-27.55Q148.04-27.55 148.99-28.35L148.99-28.35 150.24-27 135.69-8.7 131.99-5.25 140.99-5.15Q142.94-5.15 144.04-6.33 145.14-7.5 145.39-9.45L145.39-9.45 147.34-9.45Q147.39-8.95 147.39-7.7L147.39-7.7Q147.39-5.05 146.96-2.83 146.54-0.6 145.49 0.05L145.49 0.05Q144.84 0.55 142.99 0.55L142.99 0.55Q140.14 0.55 134.74 0.1L134.74 0.1Q133.49 0.05 131.26-0.1 129.04-0.25 128.09-0.25L128.09-0.25Q127.44-0.25 126.71-0.05 125.99 0.15 125.54 0.55L125.54 0.55 124.09-0.85 140.09-20.4 142.79-22.55ZM159.58-5Q159.53-4.75 159.53-4.4L159.53-4.4Q159.53-3.2 160.38-3.2L160.38-3.2Q160.83-3.2 161.38-3.5 161.93-3.8 162.78-4.5L162.78-4.5 163.43-2.95Q162.58-1.8 160.91-0.65 159.23 0.5 156.83 0.5L156.83 0.5Q154.88 0.5 153.78-0.28 152.68-1.05 152.68-2.4L152.68-2.4 152.73-2.9Q153.03-5.5 154.78-18L154.78-18 155.58-23.8 152.63-25.2 152.98-27.15 161.58-28.35 162.78-27.8 159.58-5ZM160.13-33.15Q158.78-33.15 157.81-34.18 156.83-35.2 156.83-36.55L156.83-36.55Q156.83-38.4 158.06-39.65 159.28-40.9 161.18-40.9L161.18-40.9Q162.73-40.9 163.63-39.93 164.53-38.95 164.53-37.6L164.53-37.6Q164.53-35.7 163.38-34.43 162.23-33.15 160.13-33.15L160.13-33.15ZM177.58-22.35Q179.43-25.1 181.98-26.75 184.53-28.4 187.33-28.4L187.33-28.4Q193.53-28.4 193.53-21.05L193.53-21.05Q193.53-19.1 192.28-12.35L192.28-12.35Q192.08-11.05 191.93-10.35L191.93-10.35Q191.23-6.4 191.18-4.65L191.18-4.65 191.18-4.45Q191.18-3.2 191.98-3.2L191.98-3.2Q192.43-3.2 192.93-3.45 193.43-3.7 194.23-4.35L194.23-4.35 194.93-2.8Q194.18-1.75 192.48-0.63 190.78 0.5 188.33 0.5L188.33 0.5Q185.98 0.5 185.08-0.53 184.18-1.55 184.18-3.25L184.18-3.25Q184.23-4.75 185.13-9.2L185.13-9.2 185.43-10.9Q185.53-11.35 185.86-13.3 186.18-15.25 186.38-17.03 186.58-18.8 186.58-20.1L186.58-20.1Q186.58-22.4 186.06-23.25 185.53-24.1 184.18-24.1L184.18-24.1Q182.53-24.1 180.51-22.25 178.48-20.4 177.03-17.8L177.03-17.8 174.63 0 168.08 0 171.28-23.8 168.73-25.15 169.13-27.2 176.93-28.4 178.08-27.85 177.58-22.35ZM220.28 1.9Q219.53 7.6 215.38 10.08 211.23 12.55 205.88 12.55L205.88 12.55Q204.23 12.55 202.35 12.23 200.48 11.9 199.73 11.55L199.73 11.55 200.88 6.85Q201.83 7.45 203.78 8.2 205.73 8.95 207.53 8.95L207.53 8.95Q210.43 8.95 211.78 7.8 213.13 6.65 213.53 3.45L213.53 3.45 214.28-2.5Q212.93-1.2 211.13-0.35 209.33 0.5 207.23 0.5L207.23 0.5Q203.03 0.5 200.9-2.38 198.78-5.25 198.78-9.9L198.78-9.9Q198.78-14.5 200.7-18.75 202.63-23 206.35-25.7 210.08-28.4 215.18-28.4L215.18-28.4Q216.58-28.4 218.18-28.08 219.78-27.75 220.98-27.3L220.98-27.3 224.53-28.4 220.28 1.9ZM217.48-24.7Q216.43-25.3 214.58-25.3L214.58-25.3Q211.58-25.3 209.58-22.98 207.58-20.65 206.65-17.18 205.73-13.7 205.73-10.2L205.73-10.2Q205.73-6.95 206.8-5.13 207.88-3.3 209.78-3.3L209.78-3.3Q211.18-3.3 212.5-4.13 213.83-4.95 214.78-6.1L214.78-6.1 217.48-24.7Z" fill="#000000" data-fill-palette-color="primary"></path><path d="M250.52-37.15L265.92-37.15 265.57-34.7 261.27-34.1 265.87-21.45 267.02-17.95 268.67-21.05 276.52-34.1 272.57-34.7 272.82-37.15 284.77-37.15 284.47-34.7 281.42-34.15 268.77-14.6 267.22-3 273.02-2.3 272.82 0 254.37 0 254.62-2.3 260.32-3 261.77-14.6 253.37-34.1 250.27-34.7 250.52-37.15ZM297.17-28.45Q302.37-28.45 305.12-25.43 307.87-22.4 307.87-16.75L307.87-16.75Q307.87-12.1 305.96-8.1 304.07-4.1 300.62-1.73 297.17 0.65 292.72 0.65L292.72 0.65Q287.52 0.65 284.79-2.43 282.07-5.5 282.07-11.2L282.07-11.2Q282.07-15.9 283.94-19.85 285.82-23.8 289.27-26.13 292.72-28.45 297.17-28.45L297.17-28.45ZM296.32-25.3Q294.02-25.3 292.42-23.23 290.82-21.15 290.04-17.95 289.27-14.75 289.27-11.4L289.27-11.4Q289.27-6.65 290.34-4.45 291.42-2.25 293.72-2.25L293.72-2.25Q295.97-2.25 297.52-4.35 299.07-6.45 299.82-9.7 300.57-12.95 300.57-16.35L300.57-16.35Q300.57-21.1 299.54-23.2 298.52-25.3 296.32-25.3L296.32-25.3ZM320.46-14.45Q320.26-12.6 320.11-11.85L320.11-11.85Q319.61-7.95 319.61-6.85L319.61-6.85Q319.61-4.85 320.31-4 321.01-3.15 322.41-3.15L322.41-3.15Q324.01-3.15 325.59-4.15 327.16-5.15 328.26-6.55L328.26-6.55 331.16-28.15 337.76-28.15 334.56-5Q334.46-4.1 334.71-3.65 334.96-3.2 335.46-3.2L335.46-3.2Q335.91-3.2 336.41-3.48 336.91-3.75 337.81-4.5L337.81-4.5 338.51-2.95Q337.86-1.9 336.11-0.7 334.36 0.5 332.11 0.5L332.11 0.5Q330.36 0.5 329.44-0.25 328.51-1 328.41-2.3L328.41-2.3 328.36-2.9Q328.36-3.3 328.46-3.9L328.46-3.9 328.36-3.95Q324.66 0.5 319.66 0.5L319.66 0.5Q316.86 0.5 314.91-1.03 312.96-2.55 312.91-5.9L312.91-5.9Q312.91-7.85 313.61-12.95L313.61-12.95Q313.81-14.2 313.86-14.65L313.86-14.65 315.21-23.75 312.31-25.45 312.71-27.5 321.01-28.35 322.16-27.8 320.46-14.45ZM351.61-21.2Q352.56-24.05 354.89-26.23 357.21-28.4 360.11-28.4L360.11-28.4Q361.11-28.4 361.81-27.95L361.81-27.95 360.36-20.75Q360.06-21 359.39-21.23 358.71-21.45 357.76-21.45L357.76-21.45Q355.96-21.45 354.31-20.68 352.66-19.9 351.76-18.45L351.76-18.45 349.31 0 342.81 0 345.96-23.75 343.41-25.15 343.76-27.15 350.91-28.35 352.06-27.65 351.81-23.1 351.61-21.2Z" fill="#000000" data-fill-palette-color="accent"></path><path d="M390.8-37.15L422.4-37.15 420.5-24 416.85-23.95 416.7-33.95 409.75-34.5 405.6-3 412.25-2.35 412 0 392.25 0 392.5-2.35 398.6-3 402.7-34.5 395.8-33.95 392.35-24 388.6-24 390.8-37.15ZM431.9-22Q433.75-24.9 436.32-26.65 438.9-28.4 441.8-28.4L441.8-28.4Q444.75-28.4 446.37-26.7 448-25 448-21.05L448-21.05Q448-19.5 447.42-16.15 446.85-12.8 446.8-12.35L446.8-12.35 446.5-10.75Q446.2-9.1 445.92-7.35 445.65-5.6 445.65-4.5L445.65-4.5Q445.65-3.15 446.5-3.15L446.5-3.15Q446.95-3.15 447.45-3.43 447.95-3.7 448.85-4.4L448.85-4.4 449.5-2.85Q448.85-1.85 447.1-0.68 445.35 0.5 442.9 0.5L442.9 0.5Q440.45 0.5 439.55-0.48 438.65-1.45 438.65-3.25L438.65-3.25Q438.7-4.75 439.6-9.2L439.6-9.2 439.9-10.9Q440-11.35 440.32-13.3 440.65-15.25 440.85-17.03 441.05-18.8 441.05-20.1L441.05-20.1Q441.05-22.4 440.5-23.25 439.95-24.1 438.65-24.1L438.65-24.1Q436.95-24.1 434.87-22.18 432.8-20.25 431.35-17.5L431.35-17.5 429.15 0 422.5 0 427.05-36.45 424.05-37.45 424.4-39.3 432.95-40.3 434.15-39.65 431.9-22ZM468.49-28.45Q473.69-28.45 476.44-25.43 479.19-22.4 479.19-16.75L479.19-16.75Q479.19-12.1 477.29-8.1 475.39-4.1 471.94-1.73 468.49 0.65 464.04 0.65L464.04 0.65Q458.84 0.65 456.12-2.43 453.39-5.5 453.39-11.2L453.39-11.2Q453.39-15.9 455.27-19.85 457.14-23.8 460.59-26.13 464.04-28.45 468.49-28.45L468.49-28.45ZM467.64-25.3Q465.34-25.3 463.74-23.23 462.14-21.15 461.37-17.95 460.59-14.75 460.59-11.4L460.59-11.4Q460.59-6.65 461.67-4.45 462.74-2.25 465.04-2.25L465.04-2.25Q467.29-2.25 468.84-4.35 470.39-6.45 471.14-9.7 471.89-12.95 471.89-16.35L471.89-16.35Q471.89-21.1 470.87-23.2 469.84-25.3 467.64-25.3L467.64-25.3ZM491.79-14.45Q491.59-12.6 491.44-11.85L491.44-11.85Q490.94-7.95 490.94-6.85L490.94-6.85Q490.94-4.85 491.64-4 492.34-3.15 493.74-3.15L493.74-3.15Q495.34-3.15 496.92-4.15 498.49-5.15 499.59-6.55L499.59-6.55 502.49-28.15 509.09-28.15 505.89-5Q505.79-4.1 506.04-3.65 506.29-3.2 506.79-3.2L506.79-3.2Q507.24-3.2 507.74-3.48 508.24-3.75 509.14-4.5L509.14-4.5 509.84-2.95Q509.19-1.9 507.44-0.7 505.69 0.5 503.44 0.5L503.44 0.5Q501.69 0.5 500.77-0.25 499.84-1 499.74-2.3L499.74-2.3 499.69-2.9Q499.69-3.3 499.79-3.9L499.79-3.9 499.69-3.95Q495.99 0.5 490.99 0.5L490.99 0.5Q488.19 0.5 486.24-1.03 484.29-2.55 484.24-5.9L484.24-5.9Q484.24-7.85 484.94-12.95L484.94-12.95Q485.14-14.2 485.19-14.65L485.19-14.65 486.54-23.75 483.64-25.45 484.04-27.5 492.34-28.35 493.49-27.8 491.79-14.45ZM534.79 1.9Q534.04 7.6 529.89 10.08 525.74 12.55 520.39 12.55L520.39 12.55Q518.74 12.55 516.86 12.23 514.99 11.9 514.24 11.55L514.24 11.55 515.39 6.85Q516.34 7.45 518.29 8.2 520.24 8.95 522.04 8.95L522.04 8.95Q524.94 8.95 526.29 7.8 527.64 6.65 528.04 3.45L528.04 3.45 528.79-2.5Q527.44-1.2 525.64-0.35 523.84 0.5 521.74 0.5L521.74 0.5Q517.54 0.5 515.41-2.38 513.29-5.25 513.29-9.9L513.29-9.9Q513.29-14.5 515.21-18.75 517.14-23 520.86-25.7 524.59-28.4 529.69-28.4L529.69-28.4Q531.09-28.4 532.69-28.08 534.29-27.75 535.49-27.3L535.49-27.3 539.04-28.4 534.79 1.9ZM531.99-24.7Q530.94-25.3 529.09-25.3L529.09-25.3Q526.09-25.3 524.09-22.98 522.09-20.65 521.16-17.18 520.24-13.7 520.24-10.2L520.24-10.2Q520.24-6.95 521.31-5.13 522.39-3.3 524.29-3.3L524.29-3.3Q525.69-3.3 527.01-4.13 528.34-4.95 529.29-6.1L529.29-6.1 531.99-24.7ZM552.39-22Q554.24-24.9 556.81-26.65 559.39-28.4 562.28-28.4L562.28-28.4Q565.24-28.4 566.86-26.7 568.49-25 568.49-21.05L568.49-21.05Q568.49-19.5 567.91-16.15 567.34-12.8 567.28-12.35L567.28-12.35 566.99-10.75Q566.68-9.1 566.41-7.35 566.14-5.6 566.14-4.5L566.14-4.5Q566.14-3.15 566.99-3.15L566.99-3.15Q567.43-3.15 567.93-3.43 568.43-3.7 569.34-4.4L569.34-4.4 569.99-2.85Q569.34-1.85 567.59-0.68 565.84 0.5 563.39 0.5L563.39 0.5Q560.93 0.5 560.03-0.48 559.14-1.45 559.14-3.25L559.14-3.25Q559.18-4.75 560.09-9.2L560.09-9.2 560.39-10.9Q560.49-11.35 560.81-13.3 561.14-15.25 561.34-17.03 561.53-18.8 561.53-20.1L561.53-20.1Q561.53-22.4 560.99-23.25 560.43-24.1 559.14-24.1L559.14-24.1Q557.43-24.1 555.36-22.18 553.28-20.25 551.84-17.5L551.84-17.5 549.64 0 542.99 0 547.53-36.45 544.53-37.45 544.89-39.3 553.43-40.3 554.64-39.65 552.39-22ZM582.08-9.15Q581.73-6.25 581.73-5.65L581.73-5.65Q581.73-4.5 582.18-4.03 582.63-3.55 583.73-3.55L583.73-3.55Q584.73-3.55 586.01-4.03 587.28-4.5 588.13-5.2L588.13-5.2 588.68-3.35Q587.38-1.9 584.98-0.7 582.58 0.5 579.58 0.5L579.58 0.5Q577.48 0.5 576.26-0.58 575.03-1.65 575.03-4L575.03-4Q575.03-5 575.53-8.7L575.53-8.7 577.63-24.2 574.63-24.2 575.18-26.6 578.18-27.65Q579.68-29.05 581.73-34.55L581.73-34.55 585.48-34.55 584.63-27.75 590.63-27.75 590.13-24.2 584.13-24.2 582.08-9.15ZM608.78-23Q608.18-23.7 606.81-24.45 605.43-25.2 603.63-25.2L603.63-25.2Q601.63-25.2 600.4-24.33 599.18-23.45 599.18-21.75L599.18-21.75Q599.18-20.25 600.21-19.07 601.23-17.9 603.53-16.25L603.53-16.25Q606.08-14.35 607.43-12.58 608.78-10.8 608.78-8.05L608.78-8.05Q608.78-5.3 607.28-3.38 605.78-1.45 603.28-0.48 600.78 0.5 597.78 0.5L597.78 0.5Q595.53 0.5 593.18-0.03 590.83-0.55 590.13-1.15L590.13-1.15 591.13-5.4Q592.18-4.5 593.98-3.7 595.78-2.9 597.73-2.9L597.73-2.9Q599.58-2.9 600.9-3.75 602.23-4.6 602.23-6.4L602.23-6.4Q602.23-7.95 601.08-9.2 599.93-10.45 597.63-12.05L597.63-12.05Q595.53-13.5 594.1-15.48 592.68-17.45 592.68-20.25L592.68-20.25Q592.68-22.65 594.06-24.5 595.43-26.35 597.85-27.38 600.28-28.4 603.43-28.4L603.43-28.4Q605.28-28.4 607.18-28.1 609.08-27.8 609.73-27.45L609.73-27.45 608.78-23Z" fill="#000000" data-fill-palette-color="primary"></path><path d="M634.87-37.15L649.02-37.15 648.82-34.7 645.12-34.1 647.67-11.85 648.37-6.05 650.37-11.4 658.17-30.6 657.82-34.1 654.07-34.75 654.32-37.15 668.92-37.15 668.67-34.7 664.77-34.1 666.97-11.85 667.22-6.05 669.42-11.55 679.02-34.1 674.07-34.7 674.32-37.15 687.47-37.15 687.17-34.75 683.47-34.1 667.77 0.25 661.42 0.25 659.07-23.65 649.27 0.25 643.02 0.25 637.97-34.1 634.57-34.75 634.87-37.15ZM691.17-5Q691.12-4.75 691.12-4.4L691.12-4.4Q691.12-3.2 691.97-3.2L691.97-3.2Q692.42-3.2 692.97-3.5 693.52-3.8 694.37-4.5L694.37-4.5 695.02-2.95Q694.17-1.8 692.49-0.65 690.82 0.5 688.42 0.5L688.42 0.5Q686.47 0.5 685.37-0.28 684.27-1.05 684.27-2.4L684.27-2.4 684.32-2.9Q684.62-5.5 686.37-18L686.37-18 687.17-23.8 684.22-25.2 684.57-27.15 693.17-28.35 694.37-27.8 691.17-5ZM691.72-33.15Q690.37-33.15 689.39-34.18 688.42-35.2 688.42-36.55L688.42-36.55Q688.42-38.4 689.64-39.65 690.87-40.9 692.77-40.9L692.77-40.9Q694.32-40.9 695.22-39.93 696.12-38.95 696.12-37.6L696.12-37.6Q696.12-35.7 694.97-34.43 693.82-33.15 691.72-33.15L691.72-33.15ZM707.26-9.15Q706.91-6.25 706.91-5.65L706.91-5.65Q706.91-4.5 707.36-4.03 707.81-3.55 708.91-3.55L708.91-3.55Q709.91-3.55 711.19-4.03 712.46-4.5 713.31-5.2L713.31-5.2 713.86-3.35Q712.56-1.9 710.16-0.7 707.76 0.5 704.76 0.5L704.76 0.5Q702.66 0.5 701.44-0.58 700.21-1.65 700.21-4L700.21-4Q700.21-5 700.71-8.7L700.71-8.7 702.81-24.2 699.81-24.2 700.36-26.6 703.36-27.65Q704.86-29.05 706.91-34.55L706.91-34.55 710.66-34.55 709.81-27.75 715.81-27.75 715.31-24.2 709.31-24.2 707.26-9.15ZM726.51-22Q728.36-24.9 730.94-26.65 733.51-28.4 736.41-28.4L736.41-28.4Q739.36-28.4 740.99-26.7 742.61-25 742.61-21.05L742.61-21.05Q742.61-19.5 742.04-16.15 741.46-12.8 741.41-12.35L741.41-12.35 741.11-10.75Q740.81-9.1 740.54-7.35 740.26-5.6 740.26-4.5L740.26-4.5Q740.26-3.15 741.11-3.15L741.11-3.15Q741.56-3.15 742.06-3.43 742.56-3.7 743.46-4.4L743.46-4.4 744.11-2.85Q743.46-1.85 741.71-0.68 739.96 0.5 737.51 0.5L737.51 0.5Q735.06 0.5 734.16-0.48 733.26-1.45 733.26-3.25L733.26-3.25Q733.31-4.75 734.21-9.2L734.21-9.2 734.51-10.9Q734.61-11.35 734.94-13.3 735.26-15.25 735.46-17.03 735.66-18.8 735.66-20.1L735.66-20.1Q735.66-22.4 735.11-23.25 734.56-24.1 733.26-24.1L733.26-24.1Q731.56-24.1 729.49-22.18 727.41-20.25 725.96-17.5L725.96-17.5 723.76 0 717.11 0 721.66-36.45 718.66-37.45 719.01-39.3 727.56-40.3 728.76-39.65 726.51-22Z" fill="#000000" data-fill-palette-color="accent"></path><path d="M795.05-14.85Q797.05-19.85 799.75-26L799.75-26Q803.35-34.55 804.4-37.15L804.4-37.15 817.45-37.15 817.15-34.7 812.8-34.1 811.85-3 816.15-2.3 816 0 800.2 0 800.4-2.35 805-2.95 806.25-24.35 806.8-34.25 803.2-25.55 792.1 0.05 788.6 0.45 784.95-24.95 783.5-34.25 781.4-24.7 776.2-3 781.5-2.3 781.3 0 767.2 0 767.45-2.3 771.5-3 779.5-34.1 774.8-34.7 775.15-37.15 789.7-37.15 792.75-14.9 793.35-10.35 795.05-14.85ZM840.35-5Q839.05-2.95 836.12-1.15 833.2 0.65 829.35 0.65L829.35 0.65Q825.75 0.65 823.42-0.9 821.1-2.45 820.05-4.95 819-7.45 819-10.4L819-10.4Q819-15.4 821.02-19.53 823.05-23.65 826.55-26.05 830.05-28.45 834.35-28.45L834.35-28.45Q838.2-28.45 840.07-26.68 841.95-24.9 841.95-22.05L841.95-22.05Q841.95-18.45 839.35-16.05 836.75-13.65 833.1-12.48 829.45-11.3 826.2-11.2L826.2-11.2Q826.1-7.6 827.37-5.4 828.65-3.2 831.25-3.2L831.25-3.2Q835.55-3.2 839.05-7.2L839.05-7.2 840.35-5ZM832.85-25.35Q829.9-25.35 828.2-21.8 826.5-18.25 826.2-13.9L826.2-13.9Q828.15-14 830.32-14.95 832.5-15.9 833.97-17.63 835.45-19.35 835.45-21.6L835.45-21.6Q835.45-23.4 834.77-24.38 834.1-25.35 832.85-25.35L832.85-25.35Z" fill="#000000" data-fill-palette-color="primary"></path></g></svg></g></svg></g></svg></g></svg></g><g></g></svg></g></svg></g><g><path d="M242.51 0c68.262 0 123.6 55.338 123.6 123.6 0 68.262-55.338 123.6-123.6 123.6-33.078 0-63.121-12.994-85.304-34.156h7.402c20.839 18.165 48.086 29.167 77.902 29.167 65.507 0 118.611-53.104 118.612-118.611 0-65.507-53.104-118.611-118.612-118.611-29.816 0-57.063 11.002-77.902 29.167l-7.402 0c22.183-21.162 52.226-34.156 85.304-34.156z" fill="#000000" stroke="transparent" data-fill-palette-color="tertiary"></path></g></svg></g><defs></defs></svg><rect width="395.52" height="247.2" fill="none" stroke="none" visibility="hidden"></rect></g></svg></g></svg>