<svg width="392" height="299" viewBox="0 0 392 299" fill="none" xmlns="http://www.w3.org/2000/svg">
<g clip-path="url(#clip0_220_9)">
<g clip-path="url(#clip1_220_9)">
<g clip-path="url(#clip2_220_9)">
<g clip-path="url(#clip3_220_9)">
<g clip-path="url(#clip4_220_9)">
<g clip-path="url(#clip5_220_9)">
<g clip-path="url(#clip6_220_9)">
<path d="M142.17 187.29L116.558 134.854H106.124C104.588 134.854 103.395 134.104 102.546 132.604C101.679 131.126 101.245 129.119 101.245 126.583C101.245 120.959 103.142 118.147 106.937 118.147H122.792C126.135 118.147 128.484 116.989 129.839 114.673C131.194 112.357 131.871 109.821 131.871 107.064V85.7257C131.871 82.9688 131.194 80.4324 129.839 78.1166C128.484 75.8008 126.135 74.6429 122.792 74.6429H94.1984V182.493C94.1984 187.786 91.5333 190.433 86.2031 190.433C80.8729 190.433 78.2078 187.786 78.2078 182.493V67.8609C78.2078 63.891 79.048 61.2444 80.7283 59.9211C82.3906 58.5977 84.3962 57.9361 86.7452 57.9361H126.18C128.529 57.9361 130.968 58.5426 133.498 59.7556C136.027 60.9687 138.466 62.5125 140.815 64.3872H140.68C143.029 66.4825 144.836 69.2173 146.1 72.5918C147.365 75.9442 147.998 79.8259 147.998 84.2369V108.387C147.998 117.32 145.558 123.991 140.68 128.402C139.686 129.285 138.629 130.112 137.509 130.884C136.37 131.656 135.214 132.428 134.04 133.2L155.722 176.869C155.993 177.42 156.264 178.137 156.535 179.019C156.806 179.901 156.941 180.618 156.941 181.17C156.941 183.816 155.406 186.353 152.334 188.779V188.613C150.256 190.157 148.494 190.929 147.049 190.929C144.971 190.929 143.3 189.661 142.035 187.125L142.17 187.29ZM234.998 185.305L205.185 74.1467L175.507 185.305V185.14C174.965 186.794 174.215 188.139 173.257 189.176C172.318 190.234 171.17 190.764 169.815 190.764C169.093 190.764 168.388 190.686 167.701 190.532C167.033 190.356 166.337 190.157 165.614 189.937H165.75C160.6 187.952 158.703 184.423 160.058 179.35L190.956 64.7181C191.407 62.9536 192.193 61.4649 193.314 60.2519C194.452 59.0388 195.789 58.322 197.325 58.1015C198.861 57.7707 200.351 57.517 201.797 57.3406C203.242 57.1862 204.371 57.109 205.185 57.109C205.998 57.109 207.127 57.1862 208.572 57.3406C210.018 57.517 211.509 57.7155 213.044 57.9361C214.309 58.1566 215.547 58.9837 216.757 60.4173C217.986 61.8509 218.917 63.2845 219.549 64.7181C224.608 83.6855 229.731 102.785 234.916 122.018C240.12 141.272 245.252 160.383 250.311 179.35C251.576 184.423 249.678 187.952 244.619 189.937C243.896 190.157 243.237 190.356 242.641 190.532C242.062 190.686 241.412 190.764 240.689 190.764C239.424 190.764 238.268 190.234 237.22 189.176C236.19 188.139 235.449 186.794 234.998 185.14V185.305ZM215.348 149.576C215.348 153.104 214.327 156.104 212.285 158.574C210.262 161.066 207.804 162.312 204.914 162.312C202.023 162.312 199.583 161.066 197.596 158.574C195.608 156.104 194.614 153.104 194.614 149.576C194.614 146.047 195.608 143.036 197.596 140.544C199.583 138.074 202.023 136.839 204.914 136.839C207.804 136.839 210.262 138.074 212.285 140.544C214.327 143.036 215.348 146.047 215.348 149.576ZM313.867 65.0489V162.809C313.867 171.741 311.428 178.413 306.549 182.824C304.2 184.919 301.779 186.54 299.286 187.687C296.81 188.856 294.398 189.44 292.049 189.44H279.013C276.682 189.44 274.27 188.856 271.776 187.687C269.301 186.54 266.889 184.919 264.54 182.824C259.734 178.523 257.33 171.851 257.33 162.809V151.891C257.33 146.708 259.959 144.117 265.217 144.117C270.638 144.117 273.348 146.708 273.348 151.891V161.485C273.348 164.352 274.026 166.944 275.381 169.26C276.736 171.576 279.076 172.733 282.401 172.733H288.661C292.004 172.733 294.353 171.576 295.708 169.26C297.063 166.944 297.741 164.352 297.741 161.485V65.0489C297.741 59.7556 300.406 57.109 305.736 57.109C311.157 57.109 313.867 59.7556 313.867 65.0489Z" fill="#F7CB45"/>
</g>
</g>
<g clip-path="url(#clip7_220_9)">
<g clip-path="url(#clip8_220_9)">
<path d="M78.2917 224.355H82.4207L82.3507 225.193L81.203 225.398L82.0148 232.966L82.1968 235.085L82.8686 232.966L85.6819 225.398L84.5342 225.193L84.5902 224.355H87.9633L87.8514 225.193L86.8856 225.381L82.4207 237.135L80.7271 237.169L79.1595 225.398L78.2078 225.176L78.2917 224.355ZM89.419 235.341C89.4096 235.398 89.405 235.466 89.405 235.546C89.405 235.819 89.4843 235.956 89.6429 235.956C89.7269 235.956 89.8202 235.922 89.9228 235.853C90.0255 235.785 90.1561 235.671 90.3147 235.512L90.4967 236.041C90.3381 236.303 90.102 236.565 89.7885 236.827C89.4768 237.089 89.097 237.22 88.6492 237.22C88.2852 237.22 88.0007 237.131 87.7954 236.954C87.5901 236.778 87.4874 236.537 87.4874 236.229L87.5014 236.058C87.5574 235.466 87.7487 233.746 88.0753 230.899L88.2992 228.917L87.4735 228.439L87.5714 227.772L89.9788 227.362L90.3147 227.55L89.419 235.341ZM89.5729 225.722C89.321 225.722 89.1036 225.605 88.9207 225.37C88.7397 225.138 88.6492 224.868 88.6492 224.56C88.6492 224.139 88.763 223.786 88.9907 223.501C89.2202 223.216 89.5123 223.074 89.8669 223.074C90.1561 223.074 90.3847 223.185 90.5527 223.406C90.7206 223.629 90.8046 223.894 90.8046 224.202C90.8046 224.635 90.6973 224.996 90.4827 225.285C90.2681 225.576 89.9648 225.722 89.5729 225.722ZM93.9258 233.923C93.8605 234.583 93.8279 234.982 93.8279 235.119C93.8279 235.381 93.8699 235.565 93.9538 235.672C94.0378 235.782 94.1824 235.836 94.3877 235.836C94.5743 235.836 94.7862 235.782 95.0232 235.672C95.262 235.565 95.4608 235.432 95.6194 235.273L95.7734 235.905C95.5308 236.235 95.1855 236.537 94.7376 236.81C94.2897 237.084 93.7859 237.22 93.226 237.22C92.8341 237.22 92.5234 237.097 92.2938 236.851C92.0662 236.607 91.9523 236.218 91.9523 235.683C91.9523 235.455 91.999 234.919 92.0923 234.077L92.6801 228.78H91.8404L91.9943 227.96L92.8341 227.602C93.114 227.283 93.4453 226.497 93.8279 225.244H94.8776L94.6397 227.567H96.3192L96.1793 228.78H94.4997L93.9258 233.923ZM102.741 235.307C102.732 235.352 102.727 235.421 102.727 235.512C102.727 235.808 102.82 235.956 103.007 235.956C103.156 235.956 103.366 235.819 103.637 235.546L103.833 236.076C103.711 236.303 103.495 236.551 103.183 236.817C102.87 237.086 102.508 237.22 102.097 237.22C101.78 237.22 101.528 237.135 101.341 236.964C101.155 236.793 101.057 236.531 101.047 236.178L101.075 235.888C100.814 236.263 100.497 236.579 100.123 236.834C99.7503 237.092 99.3397 237.22 98.8918 237.22C98.108 237.22 97.5229 236.892 97.1366 236.236C96.7485 235.582 96.5544 234.726 96.5544 233.667C96.5544 232.619 96.7345 231.611 97.0946 230.643C97.453 229.674 97.9774 228.883 98.6679 228.268C99.3583 227.653 100.179 227.345 101.131 227.345C101.374 227.345 101.638 227.379 101.923 227.448C102.207 227.516 102.456 227.596 102.671 227.687L103.637 227.345L102.741 235.307ZM101.663 228.558C101.486 228.456 101.257 228.405 100.977 228.405C100.417 228.405 99.9509 228.663 99.5776 229.18C99.2044 229.7 98.9319 230.354 98.7602 231.145C98.5867 231.938 98.4999 232.738 98.4999 233.547C98.4999 234.299 98.5932 234.882 98.7798 235.296C98.9664 235.713 99.2417 235.922 99.6056 235.922C99.8389 235.922 100.075 235.825 100.314 235.631C100.551 235.438 100.763 235.21 100.949 234.948L101.663 228.558ZM106.926 235.341C106.916 235.386 106.912 235.449 106.912 235.529C106.912 235.814 106.996 235.956 107.164 235.956C107.248 235.956 107.339 235.927 107.438 235.871C107.535 235.814 107.668 235.694 107.836 235.512L108.018 236.041C107.868 236.303 107.649 236.565 107.36 236.827C107.07 237.089 106.697 237.22 106.24 237.22C105.885 237.22 105.596 237.131 105.372 236.954C105.148 236.778 105.032 236.503 105.022 236.127C105.022 236.081 105.041 235.876 105.078 235.512L106.296 224.595L105.414 224.253L105.54 223.621L107.92 223.279L108.241 223.501L106.926 235.341ZM111.377 235.341C111.367 235.398 111.363 235.466 111.363 235.546C111.363 235.819 111.442 235.956 111.601 235.956C111.685 235.956 111.778 235.922 111.881 235.853C111.983 235.785 112.114 235.671 112.272 235.512L112.454 236.041C112.296 236.303 112.06 236.565 111.746 236.827C111.435 237.089 111.055 237.22 110.607 237.22C110.243 237.22 109.958 237.131 109.753 236.954C109.548 236.778 109.445 236.537 109.445 236.229L109.459 236.058C109.515 235.466 109.706 233.746 110.033 230.899L110.257 228.917L109.431 228.439L109.529 227.772L111.937 227.362L112.272 227.55L111.377 235.341ZM111.531 225.722C111.279 225.722 111.061 225.605 110.878 225.37C110.697 225.138 110.607 224.868 110.607 224.56C110.607 224.139 110.721 223.786 110.948 223.501C111.178 223.216 111.47 223.074 111.825 223.074C112.114 223.074 112.342 223.185 112.51 223.406C112.678 223.629 112.762 223.894 112.762 224.202C112.762 224.635 112.655 224.996 112.44 225.285C112.226 225.576 111.923 225.722 111.531 225.722ZM118.151 229.344L117.087 229.327C116.331 229.304 115.851 229.299 115.646 229.31C115.338 229.321 115.088 229.46 114.895 229.727C114.705 229.996 114.601 230.324 114.582 230.711H114.022C114.003 230.46 113.994 230.204 113.994 229.942C113.994 229.384 114.033 228.872 114.112 228.405C114.192 227.938 114.325 227.647 114.512 227.533C114.671 227.419 114.89 227.362 115.17 227.362C115.664 227.362 116.392 227.414 117.353 227.516C117.568 227.528 117.873 227.55 118.269 227.584C118.666 227.619 118.958 227.636 119.145 227.636C119.462 227.636 119.709 227.545 119.887 227.362L120.236 227.824L116.163 234.077L115.128 235.255L117.647 235.29C118.011 235.29 118.296 235.155 118.501 234.886C118.706 234.62 118.832 234.265 118.879 233.82H119.425C119.434 233.934 119.439 234.134 119.439 234.418C119.439 235.022 119.399 235.577 119.318 236.082C119.24 236.59 119.103 236.918 118.907 237.066C118.785 237.18 118.552 237.237 118.207 237.237C117.675 237.237 116.905 237.186 115.898 237.084C115.664 237.072 115.34 237.049 114.923 237.015C114.509 236.981 114.213 236.964 114.036 236.964C113.915 236.964 113.786 236.987 113.65 237.032C113.515 237.078 113.406 237.146 113.322 237.237L112.916 236.759L117.395 230.079L118.151 229.344ZM122.851 235.341C122.842 235.398 122.837 235.466 122.837 235.546C122.837 235.819 122.916 235.956 123.075 235.956C123.159 235.956 123.252 235.922 123.355 235.853C123.458 235.785 123.588 235.671 123.747 235.512L123.929 236.041C123.77 236.303 123.535 236.565 123.223 236.827C122.91 237.089 122.529 237.22 122.081 237.22C121.717 237.22 121.433 237.131 121.227 236.954C121.022 236.778 120.919 236.537 120.919 236.229L120.933 236.058C120.989 235.466 121.181 233.746 121.507 230.899L121.731 228.917L120.905 228.439L121.003 227.772L123.411 227.362L123.747 227.55L122.851 235.341ZM123.005 225.722C122.753 225.722 122.537 225.605 122.356 225.37C122.173 225.138 122.081 224.868 122.081 224.56C122.081 224.139 122.196 223.786 122.426 223.501C122.653 223.216 122.944 223.074 123.299 223.074C123.588 223.074 123.817 223.185 123.985 223.406C124.153 223.629 124.237 223.894 124.237 224.202C124.237 224.635 124.129 224.996 123.915 225.285C123.7 225.576 123.397 225.722 123.005 225.722ZM127.89 229.413C128.235 228.786 128.646 228.285 129.121 227.909C129.597 227.533 130.097 227.345 130.619 227.345C131.776 227.345 132.355 228.182 132.355 229.857C132.355 230.301 132.238 231.292 132.005 232.829C131.967 233.126 131.935 233.353 131.907 233.513C131.776 234.413 131.706 235.062 131.697 235.461V235.529C131.697 235.814 131.771 235.956 131.921 235.956C132.005 235.956 132.093 235.927 132.187 235.871C132.28 235.814 132.401 235.711 132.551 235.563L132.747 236.093C132.607 236.332 132.378 236.579 132.061 236.834C131.743 237.092 131.356 237.22 130.899 237.22C130.46 237.22 130.157 237.103 129.989 236.868C129.821 236.636 129.737 236.326 129.737 235.939C129.747 235.597 129.835 234.919 130.003 233.906L130.087 233.325C130.106 233.222 130.146 232.949 130.208 232.505C130.267 232.061 130.316 231.636 130.353 231.23C130.39 230.827 130.409 230.477 130.409 230.181C130.409 229.657 130.361 229.299 130.264 229.105C130.165 228.911 129.989 228.815 129.737 228.815C129.429 228.815 129.087 229.025 128.71 229.447C128.331 229.868 128.006 230.375 127.736 230.967L127.064 237.049H125.23L126.126 228.917L125.412 228.456L125.524 227.755L127.708 227.345L128.03 227.533L127.89 229.413ZM139.843 237.699C139.703 238.997 139.246 239.929 138.471 240.494C137.697 241.056 136.81 241.338 135.812 241.338C135.504 241.338 135.174 241.301 134.824 241.228C134.475 241.153 134.23 241.076 134.09 240.996L134.412 239.39C134.589 239.527 134.86 239.68 135.224 239.851C135.588 240.022 135.938 240.108 136.274 240.108C136.815 240.108 137.211 239.977 137.463 239.715C137.715 239.453 137.879 238.957 137.953 238.228L138.163 236.195C137.911 236.491 137.617 236.736 137.281 236.93C136.945 237.123 136.582 237.22 136.19 237.22C135.406 237.22 134.815 236.892 134.418 236.236C134.022 235.582 133.824 234.726 133.824 233.667C133.824 232.619 134.003 231.611 134.362 230.643C134.722 229.674 135.249 228.883 135.943 228.268C136.639 227.653 137.463 227.345 138.415 227.345C138.676 227.345 138.956 227.382 139.255 227.455C139.554 227.53 139.815 227.619 140.039 227.721L141.032 227.345L139.843 237.699ZM139.059 228.61C138.863 228.473 138.592 228.405 138.247 228.405C137.687 228.405 137.221 228.669 136.848 229.197C136.474 229.728 136.201 230.389 136.027 231.179C135.856 231.972 135.77 232.767 135.77 233.564C135.77 234.304 135.87 234.882 136.069 235.296C136.271 235.713 136.549 235.922 136.904 235.922C137.165 235.922 137.419 235.827 137.665 235.638C137.913 235.451 138.126 235.227 138.303 234.965L139.059 228.61Z" fill="#F7CB45"/>
<path d="M148.308 224.355H152.619L152.521 225.193L151.317 225.398L152.605 229.72L152.927 230.916L153.389 229.857L155.586 225.398L154.48 225.193L154.55 224.355H157.895L157.811 225.193L156.958 225.381L153.416 232.061L152.983 236.024L154.606 236.264L154.55 237.049H149.386L149.455 236.264L151.051 236.024L151.457 232.061L149.106 225.398L148.238 225.193L148.308 224.355ZM161.367 227.328C162.337 227.328 163.079 227.672 163.592 228.36C164.105 229.05 164.362 230.039 164.362 231.326C164.362 232.385 164.184 233.37 163.827 234.282C163.474 235.193 162.976 235.918 162.332 236.458C161.688 237 160.951 237.272 160.121 237.272C159.15 237.272 158.41 236.921 157.901 236.219C157.393 235.52 157.14 234.521 157.14 233.222C157.14 232.152 157.314 231.167 157.663 230.267C158.014 229.367 158.511 228.652 159.155 228.121C159.799 227.592 160.536 227.328 161.367 227.328ZM161.129 228.405C160.699 228.405 160.335 228.64 160.037 229.112C159.738 229.586 159.516 230.187 159.371 230.916C159.227 231.645 159.155 232.391 159.155 233.154C159.155 234.236 159.255 235.028 159.455 235.529C159.656 236.03 159.972 236.281 160.401 236.281C160.821 236.281 161.175 236.041 161.464 235.563C161.754 235.085 161.968 234.475 162.108 233.735C162.248 232.995 162.318 232.237 162.318 231.463C162.318 230.381 162.222 229.6 162.03 229.122C161.84 228.644 161.539 228.405 161.129 228.405ZM167.886 232.112C167.849 232.533 167.816 232.829 167.788 233C167.695 233.889 167.648 234.458 167.648 234.709C167.648 235.164 167.713 235.489 167.844 235.683C167.975 235.876 168.171 235.973 168.432 235.973C168.731 235.973 169.027 235.859 169.322 235.631C169.615 235.404 169.864 235.13 170.07 234.811L170.881 227.431H172.729L171.833 235.341C171.814 235.546 171.828 235.7 171.875 235.802C171.922 235.905 171.992 235.956 172.085 235.956C172.169 235.956 172.258 235.924 172.351 235.86C172.444 235.799 172.575 235.683 172.743 235.512L172.939 236.041C172.818 236.281 172.594 236.537 172.267 236.81C171.94 237.084 171.567 237.22 171.147 237.22C170.821 237.22 170.572 237.135 170.4 236.964C170.226 236.793 170.13 236.56 170.112 236.264L170.098 236.058C170.098 235.967 170.107 235.853 170.126 235.717L170.098 235.7C169.407 236.713 168.595 237.22 167.662 237.22C167.14 237.22 166.696 237.046 166.332 236.697C165.969 236.351 165.782 235.797 165.773 235.033C165.773 234.589 165.838 233.786 165.969 232.624C166.006 232.34 166.029 232.146 166.039 232.044L166.416 228.934L165.605 228.353L165.717 227.653L168.04 227.362L168.362 227.55L167.886 232.112ZM176.606 229.805C176.783 229.156 177.089 228.583 177.524 228.087C177.957 227.592 178.444 227.345 178.985 227.345C179.172 227.345 179.331 227.397 179.461 227.499L179.055 229.959C178.999 229.902 178.909 229.848 178.784 229.795C178.657 229.745 178.505 229.72 178.327 229.72C177.992 229.72 177.67 229.808 177.362 229.983C177.054 230.161 176.816 230.415 176.648 230.745L175.962 237.049H174.143L175.024 228.934L174.31 228.456L174.408 227.772L176.41 227.362L176.732 227.602L176.662 229.156L176.606 229.805Z" fill="#F7CB45"/>
<path d="M187.577 224.355H196.422L195.89 228.849L194.869 228.866L194.827 225.449L192.881 225.261L191.72 236.024L193.581 236.246L193.511 237.049H187.982L188.052 236.246L189.76 236.024L190.908 225.261L188.976 225.449L188.01 228.849H186.961L187.577 224.355ZM199.082 229.532C199.427 228.871 199.839 228.342 200.319 227.943C200.8 227.545 201.312 227.345 201.853 227.345C202.403 227.345 202.83 227.539 203.132 227.926C203.436 228.313 203.589 228.957 203.589 229.857C203.589 230.21 203.534 230.768 203.426 231.531C203.32 232.294 203.262 232.727 203.253 232.829L203.169 233.376C203.113 233.752 203.059 234.139 203.006 234.538C202.956 234.937 202.931 235.261 202.931 235.512C202.931 235.819 203.01 235.973 203.169 235.973C203.253 235.973 203.341 235.941 203.435 235.877C203.528 235.816 203.659 235.705 203.826 235.546L204.008 236.075C203.887 236.303 203.663 236.55 203.337 236.817C203.01 237.086 202.618 237.22 202.161 237.22C201.704 237.22 201.391 237.109 201.223 236.885C201.055 236.664 200.971 236.349 200.971 235.939C200.981 235.597 201.069 234.919 201.237 233.906L201.321 233.325C201.34 233.222 201.379 232.949 201.439 232.505C201.5 232.061 201.55 231.636 201.587 231.23C201.624 230.827 201.643 230.477 201.643 230.181C201.643 229.657 201.592 229.299 201.489 229.105C201.386 228.911 201.214 228.814 200.971 228.814C200.654 228.814 200.301 229.033 199.913 229.471C199.527 229.91 199.198 230.443 198.928 231.07L198.312 237.049H196.45L197.724 224.595L196.884 224.253L196.982 223.621L199.376 223.279L199.712 223.501L199.082 229.532ZM209.324 227.328C210.295 227.328 211.037 227.672 211.55 228.36C212.063 229.05 212.32 230.039 212.32 231.326C212.32 232.385 212.142 233.37 211.788 234.282C211.433 235.193 210.934 235.918 210.29 236.458C209.646 237 208.909 237.271 208.079 237.271C207.108 237.271 206.369 236.921 205.862 236.219C205.352 235.52 205.097 234.521 205.097 233.222C205.097 232.152 205.273 231.166 205.624 230.267C205.973 229.367 206.469 228.652 207.113 228.121C207.757 227.592 208.494 227.328 209.324 227.328ZM209.086 228.404C208.657 228.404 208.293 228.64 207.995 229.112C207.696 229.586 207.475 230.187 207.331 230.916C207.186 231.645 207.113 232.391 207.113 233.154C207.113 234.236 207.214 235.028 207.415 235.529C207.615 236.03 207.929 236.281 208.359 236.281C208.778 236.281 209.133 236.041 209.422 235.563C209.712 235.085 209.926 234.475 210.066 233.735C210.206 232.995 210.276 232.237 210.276 231.463C210.276 230.381 210.181 229.6 209.991 229.122C209.798 228.644 209.497 228.404 209.086 228.404ZM215.847 232.112C215.809 232.533 215.777 232.829 215.749 233C215.655 233.889 215.609 234.458 215.609 234.709C215.609 235.164 215.674 235.489 215.805 235.683C215.935 235.876 216.131 235.973 216.393 235.973C216.691 235.973 216.988 235.859 217.283 235.631C217.576 235.403 217.825 235.13 218.03 234.811L218.842 227.431H220.689L219.794 235.341C219.775 235.546 219.789 235.7 219.836 235.802C219.882 235.905 219.952 235.956 220.046 235.956C220.13 235.956 220.218 235.924 220.312 235.86C220.405 235.799 220.536 235.683 220.703 235.512L220.899 236.041C220.778 236.281 220.554 236.537 220.228 236.81C219.901 237.083 219.528 237.22 219.108 237.22C218.781 237.22 218.532 237.135 218.36 236.964C218.187 236.793 218.091 236.56 218.072 236.263L218.058 236.058C218.058 235.967 218.067 235.853 218.086 235.717L218.058 235.7C217.368 236.713 216.556 237.22 215.623 237.22C215.1 237.22 214.657 237.046 214.293 236.697C213.929 236.351 213.743 235.796 213.733 235.033C213.733 234.589 213.799 233.786 213.929 232.624C213.966 232.34 213.99 232.146 213.999 232.044L214.377 228.934L213.565 228.353L213.677 227.653L216.001 227.362L216.323 227.55L215.847 232.112ZM227.884 237.699C227.744 238.997 227.286 239.929 226.512 240.494C225.738 241.056 224.851 241.338 223.853 241.338C223.545 241.338 223.215 241.301 222.865 241.228C222.516 241.153 222.271 241.076 222.131 240.996L222.453 239.39C222.63 239.527 222.901 239.68 223.265 239.851C223.629 240.022 223.979 240.107 224.315 240.107C224.856 240.107 225.252 239.977 225.504 239.715C225.756 239.453 225.919 238.957 225.994 238.228L226.204 236.195C225.952 236.491 225.658 236.736 225.322 236.93C224.986 237.123 224.622 237.22 224.231 237.22C223.447 237.22 222.856 236.892 222.459 236.236C222.063 235.582 221.865 234.726 221.865 233.667C221.865 232.619 222.044 231.611 222.403 230.643C222.763 229.674 223.29 228.883 223.984 228.268C224.68 227.653 225.504 227.345 226.456 227.345C226.717 227.345 226.997 227.382 227.296 227.455C227.594 227.53 227.856 227.619 228.08 227.721L229.073 227.345L227.884 237.699ZM227.1 228.609C226.904 228.473 226.633 228.404 226.288 228.404C225.728 228.404 225.262 228.669 224.888 229.197C224.515 229.728 224.242 230.389 224.068 231.179C223.897 231.972 223.811 232.767 223.811 233.564C223.811 234.304 223.911 234.882 224.11 235.296C224.312 235.713 224.59 235.922 224.944 235.922C225.206 235.922 225.459 235.827 225.706 235.638C225.954 235.451 226.167 235.227 226.344 234.965L227.1 228.609ZM232.81 229.532C233.156 228.871 233.568 228.342 234.048 227.943C234.529 227.545 235.04 227.345 235.579 227.345C236.131 227.345 236.559 227.539 236.861 227.926C237.165 228.313 237.317 228.957 237.317 229.857C237.317 230.21 237.263 230.768 237.155 231.531C237.049 232.294 236.99 232.727 236.979 232.829L236.897 233.376C236.84 233.752 236.785 234.139 236.735 234.538C236.685 234.937 236.659 235.261 236.659 235.512C236.659 235.819 236.739 235.973 236.897 235.973C236.98 235.973 237.067 235.941 237.161 235.877C237.254 235.816 237.385 235.705 237.555 235.546L237.737 236.075C237.616 236.303 237.392 236.55 237.065 236.817C236.739 237.086 236.347 237.22 235.89 237.22C235.431 237.22 235.117 237.109 234.949 236.885C234.783 236.664 234.7 236.349 234.7 235.939C234.707 235.597 234.796 234.919 234.966 233.906L235.05 233.325C235.069 233.222 235.108 232.949 235.167 232.505C235.229 232.061 235.278 231.636 235.316 231.23C235.351 230.827 235.369 230.477 235.369 230.181C235.369 229.657 235.319 229.299 235.218 229.105C235.113 228.911 234.941 228.814 234.7 228.814C234.381 228.814 234.028 229.033 233.642 229.471C233.254 229.91 232.925 230.443 232.656 231.07L232.041 237.049H230.179L231.45 224.595L230.61 224.253L230.711 223.621L233.102 223.279L233.44 223.501L232.81 229.532ZM241.122 233.923C241.056 234.583 241.024 234.982 241.024 235.119C241.024 235.381 241.066 235.565 241.15 235.672C241.234 235.782 241.378 235.836 241.583 235.836C241.77 235.836 241.983 235.782 242.222 235.672C242.459 235.565 242.657 235.432 242.815 235.273L242.969 235.905C242.726 236.235 242.381 236.537 241.933 236.81C241.485 237.083 240.982 237.22 240.422 237.22C240.03 237.22 239.72 237.097 239.492 236.851C239.263 236.607 239.148 236.218 239.148 235.683C239.148 235.455 239.195 234.919 239.288 234.077L239.876 228.78H239.036L239.19 227.96L240.03 227.601C240.31 227.283 240.641 226.497 241.024 225.244H242.073L241.835 227.567H243.515L243.375 228.78H241.695L241.122 233.923ZM248.596 229.19C248.484 229.031 248.3 228.866 248.044 228.695C247.787 228.524 247.49 228.439 247.154 228.439C246.781 228.439 246.479 228.538 246.25 228.736C246.022 228.936 245.908 229.23 245.908 229.617C245.908 229.959 246.004 230.264 246.197 230.533C246.387 230.8 246.697 231.121 247.126 231.497C247.602 231.93 247.966 232.348 248.218 232.751C248.47 233.156 248.596 233.672 248.596 234.299C248.596 234.925 248.456 235.457 248.176 235.894C247.896 236.334 247.523 236.664 247.056 236.885C246.59 237.109 246.076 237.22 245.516 237.22C245.097 237.22 244.667 237.16 244.229 237.039C243.79 236.921 243.506 236.793 243.375 236.656L243.655 235.204C243.851 235.409 244.117 235.603 244.453 235.785C244.789 235.967 245.139 236.058 245.502 236.058C245.848 236.058 246.144 235.962 246.39 235.768C246.638 235.574 246.762 235.273 246.762 234.862C246.762 234.509 246.655 234.19 246.44 233.906C246.226 233.621 245.904 233.296 245.474 232.932C245.083 232.602 244.753 232.211 244.486 231.76C244.221 231.311 244.089 230.768 244.089 230.13C244.089 229.583 244.218 229.099 244.475 228.678C244.731 228.256 245.084 227.928 245.536 227.694C245.99 227.461 246.51 227.345 247.098 227.345C247.443 227.345 247.793 227.379 248.148 227.448C248.502 227.516 248.74 227.59 248.862 227.67L248.596 229.19Z" fill="#F7CB45"/>
<path d="M255.899 224.355H259.86L259.804 225.193L258.768 225.398L259.482 233L259.678 234.982L260.238 233.154L262.421 226.594L262.323 225.398L261.274 225.176L261.344 224.355H265.431L265.361 225.193L264.269 225.398L264.885 233L264.955 234.982L265.57 233.103L268.258 225.398L266.872 225.193L266.942 224.355H270.623L270.539 225.176L269.504 225.398L265.109 237.135H263.331L262.673 228.968L259.93 237.135H258.18L256.767 225.398L255.815 225.176L255.899 224.355ZM271.659 235.341C271.65 235.398 271.645 235.466 271.645 235.546C271.645 235.819 271.724 235.956 271.883 235.956C271.967 235.956 272.06 235.922 272.163 235.853C272.265 235.785 272.396 235.671 272.555 235.512L272.737 236.041C272.578 236.303 272.342 236.565 272.028 236.827C271.717 237.089 271.337 237.22 270.889 237.22C270.525 237.22 270.241 237.131 270.035 236.954C269.83 236.778 269.727 236.537 269.727 236.229L269.741 236.058C269.797 235.466 269.989 233.746 270.315 230.899L270.539 228.917L269.713 228.439L269.811 227.772L272.219 227.362L272.555 227.55L271.659 235.341ZM271.813 225.722C271.561 225.722 271.344 225.605 271.161 225.37C270.98 225.138 270.889 224.868 270.889 224.56C270.889 224.139 271.003 223.786 271.231 223.501C271.46 223.216 271.752 223.074 272.107 223.074C272.396 223.074 272.625 223.185 272.793 223.406C272.961 223.629 273.045 223.894 273.045 224.202C273.045 224.635 272.937 224.996 272.723 225.285C272.508 225.576 272.205 225.722 271.813 225.722ZM276.163 233.923C276.098 234.583 276.065 234.982 276.065 235.119C276.065 235.381 276.107 235.565 276.191 235.672C276.275 235.782 276.42 235.836 276.625 235.836C276.812 235.836 277.024 235.782 277.263 235.672C277.5 235.565 277.698 235.432 277.857 235.273L278.011 235.905C277.768 236.235 277.423 236.537 276.975 236.81C276.527 237.084 276.023 237.22 275.463 237.22C275.071 237.22 274.762 237.097 274.534 236.851C274.304 236.607 274.19 236.218 274.19 235.683C274.19 235.455 274.236 234.919 274.33 234.077L274.917 228.78H274.078L274.232 227.96L275.071 227.602C275.351 227.283 275.683 226.497 276.065 225.244H277.115L276.877 227.567H278.556L278.416 228.78H276.737L276.163 233.923ZM281.552 229.532C281.897 228.872 282.31 228.342 282.792 227.943C283.271 227.545 283.782 227.345 284.323 227.345C284.874 227.345 285.301 227.539 285.605 227.926C285.907 228.313 286.059 228.957 286.059 229.857C286.059 230.21 286.005 230.768 285.899 231.531C285.791 232.294 285.732 232.727 285.723 232.829L285.639 233.376C285.583 233.752 285.53 234.139 285.479 234.538C285.427 234.937 285.401 235.261 285.401 235.512C285.401 235.819 285.48 235.973 285.639 235.973C285.723 235.973 285.811 235.941 285.905 235.877C285.998 235.816 286.129 235.705 286.297 235.546L286.478 236.076C286.357 236.303 286.133 236.551 285.807 236.817C285.48 237.086 285.088 237.22 284.631 237.22C284.174 237.22 283.861 237.109 283.693 236.885C283.525 236.664 283.441 236.349 283.441 235.939C283.451 235.597 283.539 234.919 283.707 233.906L283.791 233.325C283.81 233.222 283.85 232.949 283.912 232.505C283.971 232.061 284.02 231.636 284.057 231.23C284.094 230.827 284.113 230.477 284.113 230.181C284.113 229.657 284.062 229.299 283.959 229.105C283.856 228.911 283.684 228.815 283.441 228.815C283.124 228.815 282.772 229.033 282.386 229.471C281.998 229.91 281.668 230.443 281.398 231.07L280.782 237.049H278.92L280.194 224.595L279.354 224.253L279.452 223.621L281.846 223.279L282.182 223.501L281.552 229.532Z" fill="#F7CB45"/>
<path d="M300.738 231.975C301.111 230.836 301.55 229.566 302.054 228.165C302.726 226.218 303.16 224.948 303.356 224.355H307.009L306.925 225.193L305.707 225.398L305.441 236.024L306.645 236.264L306.603 237.049H302.18L302.236 236.246L303.523 236.041L303.873 228.729L304.027 225.346L303.02 228.319L299.912 237.066L298.933 237.203L297.911 228.524L297.505 225.346L296.917 228.61L295.462 236.024L296.945 236.264L296.889 237.049H292.942L293.012 236.264L294.146 236.024L296.385 225.398L295.07 225.193L295.168 224.355H299.241L300.094 231.958L300.262 233.513L300.738 231.975ZM313.419 235.341C313.176 235.808 312.782 236.246 312.235 236.656C311.69 237.066 311.058 237.272 310.34 237.272C309.668 237.272 309.115 237.095 308.68 236.742C308.247 236.389 307.932 235.928 307.736 235.358C307.54 234.789 307.443 234.168 307.443 233.496C307.443 232.357 307.631 231.317 308.008 230.376C308.387 229.438 308.903 228.695 309.556 228.148C310.209 227.602 310.937 227.328 311.739 227.328C312.458 227.328 312.992 227.53 313.341 227.933C313.691 228.338 313.867 228.866 313.867 229.515C313.867 230.335 313.624 231.019 313.139 231.565C312.654 232.112 312.071 232.519 311.39 232.785C310.708 233.054 310.065 233.2 309.458 233.222C309.439 234.042 309.549 234.703 309.786 235.204C310.024 235.705 310.386 235.956 310.872 235.956C311.674 235.956 312.402 235.5 313.055 234.589L313.419 235.341ZM311.32 228.387C310.769 228.387 310.335 228.792 310.018 229.6C309.701 230.409 309.514 231.309 309.458 232.3C309.822 232.277 310.206 232.157 310.611 231.941C311.018 231.725 311.359 231.419 311.633 231.025C311.909 230.634 312.047 230.181 312.047 229.669C312.047 229.259 311.984 228.942 311.857 228.719C311.732 228.498 311.553 228.387 311.32 228.387Z" fill="#F7CB45"/>
</g>
</g>
</g>
</g>
</g>
</g>
<path d="M240.381 0C308.022 0 362.857 66.9339 362.857 149.5C362.857 232.066 308.022 299 240.381 299C207.603 299 177.833 283.283 155.852 257.687H163.187C183.836 279.658 210.836 292.966 240.381 292.966C305.292 292.966 357.914 228.734 357.915 149.5C357.915 70.2662 305.293 6.03443 240.381 6.03443C210.836 6.03443 183.836 19.3419 163.187 41.3133H155.852C177.833 15.7168 207.603 0 240.381 0Z" fill="#F7CB45"/>
</g>
<defs>
<clipPath id="clip0_220_9">
<rect width="391.925" height="299" fill="white" transform="translate(0.074707)"/>
</clipPath>
<clipPath id="clip1_220_9">
<rect width="235.659" height="184.782" fill="white" transform="translate(78.2078 57.109)"/>
</clipPath>
<clipPath id="clip2_220_9">
<rect width="235.659" height="184.782" fill="white" transform="translate(78.2078 57.109)"/>
</clipPath>
<clipPath id="clip3_220_9">
<rect width="235.659" height="184.782" fill="white" transform="translate(78.2078 57.109)"/>
</clipPath>
<clipPath id="clip4_220_9">
<rect width="235.659" height="184.782" fill="white" transform="translate(78.2078 57.109)"/>
</clipPath>
<clipPath id="clip5_220_9">
<rect width="235.659" height="133.82" fill="white" transform="translate(78.2078 57.109)"/>
</clipPath>
<clipPath id="clip6_220_9">
<rect width="235.659" height="133.82" fill="white" transform="translate(78.2078 57.109)"/>
</clipPath>
<clipPath id="clip7_220_9">
<rect width="235.659" height="19.3703" fill="white" transform="translate(78.2078 222.521)"/>
</clipPath>
<clipPath id="clip8_220_9">
<rect width="235.659" height="19.3703" fill="white" transform="translate(78.2078 222.521)"/>
</clipPath>
</defs>
</svg>
