<svg width="292" height="179" viewBox="0 0 292 179" fill="none" xmlns="http://www.w3.org/2000/svg">
<g filter="url(#filter0_d_100_21)">
<path fill-rule="evenodd" clip-rule="evenodd" d="M184.186 149.725L277.894 165.892C291.134 89.154 239.658 16.2122 162.92 2.97257C86.1814 -10.2671 13.2397 41.2089 9.05991e-05 117.947L93.7086 134.115C98.0193 109.13 121.767 92.3705 146.752 96.6811C171.737 100.992 188.497 124.74 184.186 149.725Z" fill="#F14E3A"/>
<path d="M147.007 95.2029C121.701 90.8368 97.6226 107.403 92.5084 132.385L1.74106 116.725C15.5151 41.6212 87.236 -8.563 162.665 4.45073C238.093 17.4644 288.852 88.78 276.664 164.158L185.896 148.498C189.449 123.246 172.314 99.5691 147.007 95.2029Z" stroke="black" stroke-width="3"/>
</g>
<defs>
<filter id="filter0_d_100_21" x="0.00012207" y="0.89679" width="291.97" height="177.995" filterUnits="userSpaceOnUse" color-interpolation-filters="sRGB">
<feFlood flood-opacity="0" result="BackgroundImageFix"/>
<feColorMatrix in="SourceAlpha" type="matrix" values="0 0 0 0 0 0 0 0 0 0 0 0 0 0 0 0 0 0 127 0" result="hardAlpha"/>
<feOffset dx="8" dy="9"/>
<feGaussianBlur stdDeviation="2"/>
<feComposite in2="hardAlpha" operator="out"/>
<feColorMatrix type="matrix" values="0 0 0 0 0 0 0 0 0 0 0 0 0 0 0 0 0 0 0.25 0"/>
<feBlend mode="normal" in2="BackgroundImageFix" result="effect1_dropShadow_100_21"/>
<feBlend mode="normal" in="SourceGraphic" in2="effect1_dropShadow_100_21" result="shape"/>
</filter>
</defs>
</svg>
