<svg width="129" height="131" viewBox="0 0 129 131" fill="none" xmlns="http://www.w3.org/2000/svg">
<path d="M87.7112 5.31677L51.9968 10.5222L57.8391 20.5248C64.2992 20.1205 69.5499 23.001 71.854 27.0492C73.1012 29.2404 73.4227 32.0403 72.0901 34.3412C71.2168 35.8482 69.7432 36.9466 67.8699 37.6912L72.2554 45.1827L84.2393 43.3917L85.7666 43.1681L86.5779 44.495C90.3567 50.6305 95.2542 52.5784 97.1675 52.2667C98.1244 52.1112 98.4026 51.9034 98.6162 50.8759C98.8299 49.8478 98.591 47.7155 97.0022 44.7276L95.4038 41.7289L98.7346 41.233L107.718 39.8898L87.7114 5.31677H87.7112ZM47.3911 11.1939L24.5969 14.5124L25.1563 15.4795L53.5715 64.7166L76.3028 61.4782L62.2481 37.4356L60.4451 34.3576L63.9331 33.8459C66.5837 33.459 67.6696 32.5499 68.0349 31.9187C68.4007 31.2875 68.4091 30.5614 67.7754 29.4482C66.5081 27.2217 62.4096 24.5825 56.894 25.3864L55.3352 25.6179L54.532 24.2427L47.0288 11.4098L47.3909 11.1939H47.3911ZM23.9985 22.9393L17.9754 47.2219L25.9512 60.8626L26.5256 61.8382L26.1326 62.9094C24.0822 68.5401 25.5269 75.0538 27.7385 78.501C28.8441 80.2245 30.0935 80.9317 30.447 80.9636C30.6234 80.9795 30.6554 81.002 30.9273 80.7717C31.1994 80.5415 31.6494 79.9637 32.0686 78.8766L33.8088 74.3755L36.2734 78.5092L46.438 95.5162L70.271 91.9577L76.5698 66.2679L52.6582 69.6738L51.0991 69.8977L50.304 68.5143L23.9985 22.9393ZM110.292 44.3356L102.49 45.5033C103.339 47.8393 103.617 49.9568 103.222 51.8599C102.661 54.5592 100.427 56.5759 97.9153 56.9848C93.2164 57.7498 87.8044 54.6498 83.4834 48.3418L74.8538 49.6367L81.8606 61.6143L82.3569 62.4617L82.1206 63.4135L75.3103 91.2059L84.1524 89.886C86.1438 82.0226 90.9538 77.6231 95.9312 77.4448C98.5968 77.3494 101.221 78.5962 102.828 80.883C103.948 82.4758 104.542 84.5152 104.624 86.8318L111.025 85.8723L117.867 58.2958L112.245 47.7178L110.292 44.3353V44.3356ZM16.3455 53.7944L11.5344 73.1681L37.4226 117.823L42.3596 97.9225L34.1712 84.2097C34.0923 84.2834 34.025 84.3719 33.9429 84.4415C32.8424 85.3734 31.377 85.8444 30.0215 85.7208C27.3105 85.4744 25.3435 83.5235 23.7932 81.1077C20.8554 76.5283 19.2656 69.3842 21.3765 62.4059L16.345 53.7947L16.3455 53.7944ZM96.0962 82.2268C93.6522 82.3143 89.7727 84.9351 88.3569 92.4689L88.042 94.1404L86.3884 94.3881L46.627 100.313L40.5881 124.636L40.3286 125.667L103.427 116.472L109.773 90.8941L102.466 91.9891L99.2854 92.4612L99.7969 89.2389C100.235 86.5012 99.7248 84.7061 98.9939 83.6663C98.2632 82.6265 97.3184 82.1833 96.0964 82.2271L96.0962 82.2268Z" fill="#8F5050"/>
</svg>
