<svg width="123" height="258" viewBox="0 0 123 258" fill="none" xmlns="http://www.w3.org/2000/svg">
<path d="M78.261 2C36.143 2 2 14.7135 2 30.3964C2 46.0793 36.143 58.7929 78.261 58.7929C101.865 58.7929 121 53.4111 121 46.7723C121 40.1335 101.865 34.7517 78.261 34.7517C36.143 34.7517 2 47.4652 2 63.1481C2 78.8311 36.143 91.545 78.261 91.545C101.865 91.545 121 86.163 121 79.524C121 72.8852 101.865 67.5034 78.261 67.5034C36.143 67.5034 2 80.295 2 96.074C2 111.853 36.143 124.645 78.261 124.645C101.865 124.645 121 119.263 121 112.624C121 105.985 101.865 100.604 78.261 100.604C36.143 100.604 2 113.317 2 129C2 144.683 36.143 157.396 78.261 157.396C101.865 157.396 121 152.015 121 145.376C121 138.737 101.865 133.355 78.261 133.355C36.143 133.355 2 146.069 2 161.752C2 177.435 36.143 190.148 78.261 190.148C101.865 190.148 121 184.766 121 178.128C121 171.489 101.865 166.107 78.261 166.107C36.143 166.107 2 178.821 2 194.503C2 210.186 36.143 222.9 78.261 222.9C101.865 222.9 121 217.518 121 210.879C121 204.241 101.865 198.859 78.261 198.859C36.143 198.859 2 211.65 2 227.429C2 243.208 36.143 256 78.261 256" stroke="#4F4F4F" stroke-width="3" stroke-linecap="round"/>
</svg>
