<?xml version="1.0" standalone="no"?><svg xmlns="http://www.w3.org/2000/svg" viewBox="0 0 1440 320"><path fill="#ff5500" fill-opacity="1" d="M0,192L40,197.3C80,203,160,213,240,197.3C320,181,400,139,480,138.7C560,139,640,181,720,186.7C800,192,880,160,960,138.7C1040,117,1120,107,1200,117.3C1280,128,1360,160,1400,176L1440,192L1440,320L1400,320C1360,320,1280,320,1200,320C1120,320,1040,320,960,320C880,320,800,320,720,320C640,320,560,320,480,320C400,320,320,320,240,320C160,320,80,320,40,320L0,320Z"></path></svg>